<svg xmlns="http://www.w3.org/2000/svg" id="Layer_1" height="512" viewBox="0 0 511.998 511.998" width="512"><g><g><path d="m510.862 314.656-78.55-293.151c-4.14-15.45-20.078-24.655-35.53-20.512-7.464 2-13.713 6.804-17.595 13.528-3.351 5.803-4.576 12.419-3.563 18.921-3.682 11.358-12.878 24.963-26.137 38.604-3.85 3.96-3.76 10.291.2 14.141 1.943 1.889 4.457 2.83 6.969 2.83 2.606 0 5.211-1.013 7.171-3.03 7.723-7.945 14.206-15.877 19.367-23.62l64.706 241.485c-17.15-8.475-39.456-14.79-64.766-18.097-41.668-5.445-87.389-2.341-128.741 8.739l-8.701 2.332-4.777-17.83c-1.345-5.018-4.571-9.216-9.085-11.823-4.514-2.606-9.764-3.301-14.781-1.956l-91.349 24.476-24.287-90.64 118.873-31.852c23.295-6.242 46.277-15.224 68.308-26.696 4.898-2.551 6.802-8.59 4.251-13.488-2.551-4.899-8.591-6.8-13.488-4.251-20.741 10.801-42.356 19.251-64.247 25.117l-165.256 44.28c-35.7 9.565-56.974 46.344-47.424 81.986l9.821 36.653c4.611 17.208 15.71 31.616 31.253 40.57 10.362 5.969 21.838 9.019 33.445 9.019 5.797 0 11.627-.761 17.366-2.299l8.725-2.338c2.493 8.418 10.235 13.956 18.674 13.956 1.664 0 3.356-.215 5.039-.666l5.709-1.53 51.357 114.296c.139.31.294.612.464.906 11.073 19.158 25.706 29.284 41.553 29.282 4.911 0 9.941-.973 15.014-2.951 2.047-.798 4.354-1.647 6.797-2.545 17.934-6.596 42.495-15.629 49.539-35.098 3.575-9.881 2.045-20.673-4.546-32.078-5.689-9.843-13.547-12.681-19.285-14.753-4.785-1.728-6.805-2.564-8.762-5.95-1.956-3.383-1.671-5.546-.777-10.544 1.073-6.002 2.542-14.223-3.149-24.071-5.689-9.844-13.548-12.681-19.285-14.753-4.785-1.728-6.805-2.564-8.762-5.95-1.955-3.383-1.67-5.546-.777-10.543.595-3.325 1.321-7.411.833-12.101l4.285-1.148c10.211-2.736 16.338-13.144 13.886-23.364l8.727-2.338c80.908-21.678 167.166-7.533 196.257 18.876 4.369 11.237 15.238 18.49 27.02 18.49 2.478 0 4.997-.32 7.501-.992 15.448-4.14 24.65-20.078 20.51-35.529zm-421.725 24.117c-12.076 3.235-24.738 1.556-35.651-4.731-10.908-6.283-18.691-16.375-21.918-28.417l-9.821-36.652c-6.695-24.99 8.235-50.78 33.283-57.492l27.065-7.252 24.293 90.663c-10.099 2.971-16.064 13.496-13.324 23.72l4.777 17.829zm32.933 10.819-9.555-35.661 109.214-29.263 9.556 35.66zm93.23 23.722c5.689 9.843 13.547 12.681 19.285 14.752 4.785 1.728 6.805 2.564 8.762 5.95 1.955 3.383 1.67 5.546.777 10.543-1.073 6.003-2.542 14.224 3.149 24.072 5.689 9.844 13.547 12.681 19.285 14.753 4.785 1.728 6.805 2.564 8.762 5.95 5.275 9.127 3.604 13.747 3.055 15.265-3.877 10.715-24.192 18.187-37.635 23.131-2.536.933-4.931 1.813-7.159 2.682-4.365 1.702-17.596 6.858-31.737-17.278l-49.814-110.864 60.641-16.249c-.122.941-.299 1.986-.52 3.222-1.073 6.003-2.543 14.224 3.149 24.071zm269.872-42.447c-4.795 1.285-9.748-1.572-11.034-6.371l-78.55-293.151c-1.286-4.798 1.572-9.748 6.371-11.034.761-.204 1.536-.305 2.308-.305 1.563 0 3.114.414 4.518 1.225 2.097 1.211 3.592 3.146 4.209 5.451l78.55 293.151c1.285 4.798-1.573 9.748-6.372 11.034z"></path><path d="m322.373 118.156c5.523 0 10-4.477 10-10s-4.477-10-10-10h-.007c-5.523 0-9.996 4.477-9.996 10s4.48 10 10.003 10z"></path></g></g></svg>