<svg xmlns="http://www.w3.org/2000/svg" width="930" height="237" viewBox="0 0 930 237" fill="none">
  <path d="M42.5 0H197.5C221 0 240 19 240 42.5V191.5C240 215 221 234 197.5 234H42.5C19 234 0 215 0 191.5V42.5C0 19 19 0 42.5 0Z" fill="#001E36"/>
  <path d="M54 164.1V61.2C54 60.5 54.3 60.1 55 60.1C56.7 60.1 58.3 60.1 60.6 60C63 59.9 65.5 59.9 68.2 59.8C70.9 59.7 73.8 59.7 76.9 59.6C80 59.5 83 59.5 86 59.5C94.2 59.5 101 60.5 106.6 62.6C111.6 64.3 116.2 67.1 120 70.8C123.2 74 125.7 77.9 127.3 82.2C128.8 86.4 129.6 90.7 129.6 95.2C129.6 103.8 127.6 110.9 123.6 116.5C119.6 122.1 114 126.3 107.5 128.7C100.7 131.2 93.2 132.1 85 132.1C82.6 132.1 81 132.1 80 132C79 131.9 77.6 131.9 75.7 131.9V164C75.8 164.7 75.3 165.3 74.6 165.4C74.5 165.4 74.4 165.4 74.2 165.4H55.2C54.4 165.4 54 165 54 164.1ZM75.8 79.4V113C77.2 113.1 78.5 113.2 79.7 113.2H85C88.9 113.2 92.8 112.6 96.5 111.4C99.7 110.5 102.5 108.6 104.7 106.1C106.8 103.6 107.8 100.2 107.8 95.8C107.9 92.7 107.1 89.6 105.5 86.9C103.8 84.3 101.4 82.3 98.5 81.2C94.8 79.7 90.8 79.1 86.7 79.2C84.1 79.2 81.8 79.2 79.9 79.3C77.9 79.2 76.5 79.3 75.8 79.4Z" fill="#31A8FF"/>
  <path d="M192 106.9C189 105.3 185.8 104.2 182.4 103.5C178.7 102.7 175 102.2 171.2 102.2C169.2 102.1 167.1 102.4 165.2 102.9C163.9 103.2 162.8 103.9 162.1 104.9C161.6 105.7 161.3 106.7 161.3 107.6C161.3 108.5 161.7 109.4 162.3 110.2C163.2 111.3 164.4 112.2 165.7 112.9C168 114.1 170.4 115.2 172.8 116.2C178.2 118 183.4 120.5 188.2 123.5C191.5 125.6 194.2 128.4 196.1 131.8C197.7 135 198.5 138.5 198.4 142.1C198.5 146.8 197.1 151.5 194.5 155.4C191.7 159.4 187.8 162.5 183.3 164.3C178.4 166.4 172.4 167.5 165.2 167.5C160.6 167.5 156.1 167.1 151.6 166.2C148.1 165.6 144.6 164.5 141.4 163C140.7 162.6 140.2 161.9 140.3 161.1V143.7C140.3 143.4 140.4 143 140.7 142.8C141 142.6 141.3 142.7 141.6 142.9C145.5 145.2 149.6 146.8 154 147.8C157.8 148.8 161.8 149.3 165.8 149.3C169.6 149.3 172.3 148.8 174.1 147.9C175.7 147.2 176.8 145.5 176.8 143.7C176.8 142.3 176 141 174.4 139.7C172.8 138.4 169.5 136.9 164.6 135C159.5 133.2 154.8 130.8 150.4 127.8C147.3 125.6 144.7 122.7 142.8 119.3C141.2 116.1 140.4 112.6 140.5 109.1C140.5 104.8 141.7 100.7 143.9 97C146.4 93 150.1 89.8 154.4 87.8C159.1 85.4 165 84.3 172.1 84.3C176.2 84.3 180.4 84.6 184.5 85.2C187.5 85.6 190.4 86.4 193.1 87.5C193.5 87.6 193.9 88 194.1 88.4C194.2 88.8 194.3 89.2 194.3 89.6V105.9C194.3 106.3 194.1 106.7 193.8 106.9C192.9 107.1 192.4 107.1 192 106.9Z" fill="#31A8FF"/>
  <path d="M387.5 0H542.5C566 0 585 19 585 42.5V191.5C585 215 566 234 542.5 234H387.5C364 234 345 215 345 191.5V42.5C345 19 364 0 387.5 0Z" fill="#330000"/>
  <path d="M461 140H423.8L416.2 163.5C416 164.4 415.2 165 414.3 164.9H395.5C394.4 164.9 394.1 164.3 394.4 163.1L426.6 70.4004C426.9 69.4004 427.2 68.3004 427.6 67.1004C428 65.0004 428.2 62.8004 428.2 60.6004C428.1 60.1004 428.5 59.6004 429 59.5004H454.9C455.7 59.5004 456.1 59.8004 456.2 60.3004L492.7 163.3C493 164.4 492.7 164.9 491.7 164.9H470.8C470.1 165 469.4 164.5 469.2 163.8L461 140ZM429.6 119.7H455C454.4 117.6 453.6 115.1 452.7 112.5C451.8 109.8 450.9 106.9 450 103.9C449 100.8 448.1 97.8004 447.1 94.7004C446.1 91.6004 445.2 88.7004 444.4 85.8004C443.6 83.0004 442.9 80.4004 442.2 78.0004H442C441.1 82.3004 440 86.6004 438.6 90.9004C437.1 95.7004 435.6 100.7 434 105.7C432.6 110.8 431.1 115.5 429.6 119.7ZM515 77.0004C511.7 77.1004 508.5 75.8004 506.1 73.5004C503.8 71.0004 502.6 67.7004 502.7 64.3004C502.6 60.9004 503.9 57.7004 506.3 55.4004C508.7 53.1004 511.9 51.9004 515.2 51.9004C519.1 51.9004 522.1 53.1004 524.3 55.4004C526.5 57.8004 527.7 61.0004 527.6 64.3004C527.7 67.7004 526.5 71.0004 524.1 73.5004C521.8 75.9004 518.4 77.2004 515 77.0004ZM503.8 163.8V86.8004C503.8 85.8004 504.2 85.4004 505.1 85.4004H524.9C525.8 85.4004 526.2 85.9004 526.2 86.8004V163.8C526.2 164.9 525.8 165.4 524.9 165.4H505.3C504.3 165.4 503.8 164.8 503.8 163.8Z" fill="#FF9A00"/>
  <path d="M732.5 3H887.5C911 3 930 22 930 45.5V194.5C930 218 911 237 887.5 237H732.5C709 237 690 218 690 194.5V45.5C690 22 709 3 732.5 3Z" fill="#470137"/>
  <path d="M816.2 64.5L786.2 114L818.2 166.5C818.4 166.9 818.5 167.3 818.4 167.7C818.3 168.1 817.9 167.8 817.3 167.9H794.4C792.8 167.9 791.7 167.8 791 166.8C788.9 162.6 786.7 158.5 784.6 154.3C782.5 150.2 780.2 146 777.8 141.7C775.4 137.4 773 133.1 770.6 128.7H770.4C768.3 133 766 137.3 763.7 141.6C761.4 145.9 759.1 150.2 756.9 154.4C754.6 158.6 752.3 162.9 750 167C749.6 168 748.8 168.1 747.7 168.1H725.7C725.3 168.1 725 168.3 725 167.8C724.9 167.4 725 167 725.2 166.7L756.3 115.7L726 64.4C725.7 64 725.6 63.6 725.8 63.4C726 63.1 726.4 63 726.8 63H749.5C750 63 750.5 63.1 750.9 63.2C751.3 63.4 751.6 63.7 751.9 64.1C753.8 68.4 756 72.7 758.3 77C760.7 81.3 763 85.5 765.5 89.7C767.9 93.9 770.1 98.1 772.2 102.4H772.4C774.5 98 776.7 93.7 778.9 89.5C781.1 85.3 783.4 81.1 785.7 76.9C788 72.7 790.2 68.4 792.4 64.3C792.5 63.9 792.7 63.5 793 63.3C793.4 63.1 793.8 63 794.3 63.1H815.4C815.9 63 816.4 63.3 816.5 63.8C816.6 63.9 816.4 64.3 816.2 64.5Z" fill="#FF61F6"/>
  <path d="M862.4 170C855 170.1 847.6 168.6 840.9 165.5C834.6 162.6 829.4 157.8 825.8 151.9C822.1 145.8 820.3 138.2 820.3 129.1C820.2 121.7 822.1 114.4 825.8 108C829.6 101.5 835.1 96.1 841.7 92.5C848.7 88.6 857.1 86.7 867 86.7C867.5 86.7 868.2 86.7 869.1 86.8C870 86.9 871 86.9 872.2 87V55.4C872.2 54.7 872.5 54.3 873.2 54.3H893.5C894 54.2 894.4 54.6 894.5 55C894.5 55.1 894.5 55.2 894.5 55.2V150.4C894.5 152.2 894.6 154.2 894.7 156.4C894.9 158.5 895 160.5 895.1 162.2C895.1 162.9 894.8 163.5 894.1 163.8C888.9 166 883.4 167.6 877.8 168.6C872.7 169.5 867.6 170 862.4 170ZM872.2 150V106C871.3 105.8 870.4 105.6 869.5 105.5C868.4 105.4 867.3 105.3 866.2 105.3C862.3 105.3 858.4 106.1 854.9 107.9C851.5 109.6 848.6 112.1 846.4 115.3C844.2 118.5 843.1 122.8 843.1 128C843 131.5 843.6 135 844.8 138.3C845.8 141 847.3 143.4 849.3 145.4C851.2 147.2 853.5 148.6 856.1 149.4C858.8 150.3 861.6 150.7 864.4 150.7C865.9 150.7 867.3 150.6 868.6 150.5C869.9 150.6 871 150.4 872.2 150Z" fill="#FF61F6"/>
</svg>