<svg xmlns="http://www.w3.org/2000/svg" width="140" height="30" viewBox="0 0 979 237" fill="none">
  <path d="M182.533 46.1447C182.369 44.9536 181.325 44.2944 180.463 44.2218C179.602 44.15 161.386 42.7998 161.386 42.7998C161.386 42.7998 148.735 30.2399 147.346 28.8497C145.957 27.4604 143.244 27.883 142.19 28.193C142.035 28.2387 139.426 29.0439 135.111 30.3794C130.884 18.2185 123.426 7.04315 110.305 7.04315C109.943 7.04315 109.57 7.05783 109.197 7.07905C105.465 2.14403 100.843 0 96.85 0C66.2846 0 51.6819 38.2099 47.1034 57.6269C35.2264 61.3071 26.7889 63.9235 25.7112 64.2621C19.0817 66.3417 18.872 66.5505 18.0015 72.7974C17.3464 77.5269 0 211.675 0 211.675L135.167 237L208.405 221.156C208.405 221.156 182.694 47.3359 182.533 46.1447ZM127.64 32.6899L116.203 36.2298C116.207 35.4238 116.211 34.6308 116.211 33.7636C116.211 26.2056 115.162 20.1203 113.479 15.2962C120.239 16.1447 124.742 23.8372 127.64 32.6899ZM105.092 16.7949C106.971 21.5047 108.193 28.264 108.193 37.3851C108.193 37.8517 108.189 38.2784 108.185 38.71C100.747 41.0139 92.6648 43.5153 84.5643 46.0248C89.1126 28.4712 97.6381 19.993 105.092 16.7949ZM96.0105 8.19838C97.3297 8.19838 98.6587 8.64628 99.9306 9.52167C90.1348 14.1312 79.635 25.7406 75.2009 48.9243L56.5296 54.707C61.7232 37.0237 74.0563 8.19838 96.0105 8.19838Z" fill="#95BF46"/>
  <path d="M180.463 44.2218C179.602 44.15 161.386 42.7998 161.386 42.7998C161.386 42.7998 148.735 30.2399 147.346 28.8497C146.827 28.3325 146.126 28.0676 145.393 27.9534L135.173 236.999L208.405 221.156C208.405 221.156 182.694 47.3359 182.533 46.1447C182.369 44.9536 181.325 44.2944 180.463 44.2218Z" fill="#5E8E3E"/>
  <path d="M110.305 84.6893L101.274 111.552C101.274 111.552 93.3624 107.329 83.6637 107.329C69.4453 107.329 68.7298 116.252 68.7298 118.5C68.7298 130.769 100.711 135.47 100.711 164.207C100.711 186.816 86.3707 201.375 67.0353 201.375C43.8328 201.375 31.9672 186.934 31.9672 186.934L38.1798 166.408C38.1798 166.408 50.3766 176.879 60.6685 176.879C67.3934 176.879 70.1289 171.584 70.1289 167.716C70.1289 151.712 43.8915 150.998 43.8915 124.701C43.8915 102.568 59.7775 81.1502 91.845 81.1502C104.201 81.1502 110.305 84.6893 110.305 84.6893Z" fill="white"/>
  <path fill-rule="evenodd" clip-rule="evenodd" d="M979 184.873C979 213.72 955.72 237 926.873 237H823.127C794.28 237 771 213.72 771 184.873V81.1265C771 52.2798 794.28 29 823.127 29H926.873C955.72 29 979 52.2798 979 81.1265V184.873Z" fill="#0087CD"/>
  <path fill-rule="evenodd" clip-rule="evenodd" d="M932.442 148.435C937.502 132.746 946.612 98.3326 949.648 85.6805C952.179 75.0528 953.191 71.0041 948.13 71.0041C944.082 71.0041 932.948 75.5589 930.417 84.1623C926.875 98.3326 919.284 128.191 916.247 138.819C912.704 150.459 905.619 152.99 896.004 152.99C888.919 152.99 884.87 152.483 883.858 148.435C883.352 146.917 882.339 146.41 881.327 146.41H869.687C868.169 146.41 867.157 147.423 867.157 148.435C866.145 152.99 862.096 152.99 855.011 152.99C848.938 152.99 839.829 151.977 836.792 140.844C834.262 133.252 828.695 113.515 825.658 102.887C822.622 92.2596 813.512 91.7535 808.957 91.7535C803.897 91.7535 803.391 92.7657 806.427 102.887C809.464 113.009 816.549 136.289 821.103 151.471C825.658 166.654 840.335 171.715 849.95 171.715H866.145C870.7 171.715 873.23 170.702 874.748 169.69C875.76 168.678 877.279 168.678 878.291 169.69C879.809 170.702 882.846 172.221 887.4 172.221H903.089C915.235 171.715 927.381 163.617 932.442 148.435Z" fill="white"/>
  <path d="M850.962 110.478C855.155 110.478 858.554 107.079 858.554 102.886C858.554 98.6939 855.155 95.2951 850.962 95.2951C846.77 95.2951 843.371 98.6939 843.371 102.886C843.371 107.079 846.77 110.478 850.962 110.478Z" fill="white"/>
  <path d="M875.76 110.478C879.953 110.478 883.352 107.079 883.352 102.886C883.352 98.6939 879.953 95.2951 875.76 95.2951C871.568 95.2951 868.169 98.6939 868.169 102.886C868.169 107.079 871.568 110.478 875.76 110.478Z" fill="white"/>
  <path d="M901.064 110.478C905.257 110.478 908.656 107.079 908.656 102.886C908.656 98.6939 905.257 95.2951 901.064 95.2951C896.872 95.2951 893.473 98.6939 893.473 102.886C893.473 107.079 896.872 110.478 901.064 110.478Z" fill="white"/>
  <path d="M850.962 137.808C855.155 137.808 858.554 134.409 858.554 130.217C858.554 126.024 855.155 122.625 850.962 122.625C846.77 122.625 843.371 126.024 843.371 130.217C843.371 134.409 846.77 137.808 850.962 137.808Z" fill="white"/>
  <path d="M875.76 137.808C879.953 137.808 883.352 134.409 883.352 130.217C883.352 126.024 879.953 122.625 875.76 122.625C871.568 122.625 868.169 126.024 868.169 130.217C868.169 134.409 871.568 137.808 875.76 137.808Z" fill="white"/>
  <path d="M901.064 137.808C905.257 137.808 908.656 134.409 908.656 130.217C908.656 126.024 905.257 122.625 901.064 122.625C896.872 122.625 893.473 126.024 893.473 130.217C893.473 134.409 896.872 137.808 901.064 137.808Z" fill="white"/>
  <path fill-rule="evenodd" clip-rule="evenodd" d="M811.993 176.268C803.39 176.268 796.811 183.353 796.811 191.451C796.811 199.548 803.896 206.633 811.993 206.633C820.091 206.633 827.176 199.548 827.176 191.451C827.176 183.353 820.091 176.268 811.993 176.268ZM811.993 197.524C808.957 197.524 806.427 194.993 806.427 191.957C806.427 188.92 808.957 186.39 811.993 186.39C815.03 186.39 817.56 188.92 817.56 191.957C817.054 194.993 815.03 197.524 811.993 197.524ZM938.514 176.268C929.911 176.268 923.332 183.353 923.332 191.451C923.332 199.548 930.417 206.633 938.514 206.633C946.611 206.633 953.697 199.548 953.697 191.451C953.697 183.353 947.118 176.268 938.514 176.268ZM938.514 197.524C935.478 197.524 932.947 194.993 932.947 191.957C932.947 188.92 935.478 186.39 938.514 186.39C941.551 186.39 944.081 188.92 944.081 191.957C944.081 194.993 941.551 197.524 938.514 197.524Z" fill="white"/>
  <path d="M347.388 29H631.468C649.446 29 664 43.5709 664 61.5719V170.143C664 188.143 649.447 202.715 631.468 202.715H529.594L543.578 237L482.082 202.715H347.533C329.555 202.715 315.001 188.144 315.001 170.143V61.5719C314.858 43.7142 329.411 29 347.388 29Z" fill="#7F54B3"/>
  <path d="M334.872 58.6872C336.858 55.9884 339.837 54.5679 343.81 54.2839C351.045 53.7157 355.159 57.1248 356.152 64.5111C360.55 94.1988 365.374 119.34 370.482 139.937L401.551 80.7049C404.388 75.3072 407.935 72.4663 412.191 72.1823C418.433 71.7561 422.264 75.7333 423.824 84.114C427.371 103.006 431.911 119.057 437.302 132.693C440.991 96.6129 447.233 70.6201 456.029 54.5682C458.157 50.591 461.278 48.6024 465.393 48.3182C468.656 48.0341 471.635 49.0284 474.33 51.1591C477.026 53.2898 478.445 55.9886 478.728 59.2556C478.87 61.8124 478.445 63.943 477.31 66.0737C471.777 76.3009 467.237 93.4888 463.549 117.351C460.002 140.505 458.725 158.544 459.576 171.47C459.86 175.021 459.293 178.146 457.874 180.845C456.171 183.97 453.618 185.674 450.355 185.958C446.666 186.243 442.836 184.538 439.147 180.703C425.953 167.209 415.455 147.039 407.795 120.192C398.573 138.373 391.764 152.01 387.366 161.101C378.996 177.151 371.902 185.39 365.943 185.816C362.113 186.1 358.85 182.833 356.012 176.015C348.777 157.406 340.974 121.47 332.604 68.204C332.036 64.5108 332.887 61.2438 334.873 58.6869L334.872 58.6872ZM639.755 80.9878C634.648 72.0391 627.129 66.6408 617.057 64.5101C614.361 63.9419 611.807 63.6578 609.396 63.6578C595.776 63.6578 584.711 70.7601 576.057 84.9648C568.679 97.0385 564.991 110.391 564.991 125.021C564.991 135.958 567.261 145.333 571.801 153.146C576.908 162.094 584.427 167.493 594.499 169.623C597.195 170.192 599.748 170.476 602.16 170.476C615.921 170.476 626.987 163.373 635.499 149.169C642.876 136.953 646.565 123.6 646.565 108.971C646.707 97.8913 644.295 88.6589 639.755 80.9878ZM621.88 120.334C619.894 129.709 616.347 136.668 611.098 141.357C606.984 145.05 603.153 146.613 599.606 145.903C596.201 145.192 593.364 142.209 591.236 136.67C589.534 132.266 588.682 127.863 588.682 123.744C588.682 120.193 588.966 116.641 589.676 113.375C590.952 107.551 593.364 101.869 597.195 96.4709C601.876 89.5108 606.842 86.6699 611.949 87.6643C615.354 88.3745 618.192 91.3574 620.32 96.8971C622.022 101.3 622.873 105.704 622.873 109.823C622.873 113.516 622.589 117.067 621.88 120.334ZM550.944 80.9878C545.837 72.0391 538.176 66.6408 528.246 64.5101C525.55 63.9419 522.997 63.6578 520.585 63.6578C506.966 63.6578 495.9 70.7601 487.246 84.9648C479.869 97.0385 476.18 110.391 476.18 125.021C476.18 135.958 478.45 145.333 482.99 153.146C488.097 162.094 495.616 167.493 505.688 169.623C508.384 170.192 510.938 170.476 513.349 170.476C527.11 170.476 538.176 163.373 546.688 149.169C554.066 136.953 557.754 123.6 557.754 108.971C557.754 97.8913 555.484 88.6589 550.944 80.9878ZM532.927 120.334C530.941 129.709 527.395 136.668 522.145 141.357C518.031 145.05 514.201 146.613 510.654 145.903C507.249 145.192 504.412 142.209 502.284 136.67C500.581 132.266 499.73 127.863 499.73 123.744C499.73 120.193 500.014 116.641 500.723 113.375C502 107.551 504.412 101.869 508.242 96.4709C512.924 89.5108 517.889 86.6699 522.997 87.6643C526.402 88.3745 529.239 91.3574 531.367 96.8971C533.07 101.3 533.921 105.704 533.921 109.823C534.063 113.516 533.637 117.067 532.927 120.334Z" fill="white"/>
</svg>