<svg xmlns="http://www.w3.org/2000/svg" id="Layer_1" height="70" viewBox="0 0 512 512" width="70"><g><g><path d="m512 188.284v-44.046c0-10.641-1.507-19.837-8.86-30.133l-51.575-72.203c-7.326-10.255-18.536-15.902-31.567-15.902h-327.996c-13.031 0-24.241 5.647-31.566 15.901l-51.577 72.204c-7.352 10.295-8.859 19.492-8.859 30.133v44.046c0 15.591 7.946 29.36 20 37.473v191.963c-11.639 4.128-20 15.243-20 28.28v20c0 11.028 8.972 20 20 20h472c11.028 0 20-8.972 20-20v-20c0-13.036-8.361-24.151-20-28.279v-191.963c12.054-8.114 20-21.883 20-37.474zm-20 0c0 13.864-11.279 25.143-25.144 25.143-13.863 0-25.143-11.279-25.143-25.143v-44.046c0-.947-.014-1.873-.035-2.791h50.27c.033.882.051 1.805.051 2.791v44.046zm-472 0v-44.046c0-.986.018-1.909.051-2.791h50.27c-.021.917-.035 1.844-.035 2.791v44.046c0 13.864-11.279 25.143-25.143 25.143s-25.143-11.279-25.143-25.143zm70.286-44.046c0-.982.015-1.904.042-2.791h50.268c-.015.917-.025 1.843-.025 2.791v44.046c0 13.864-11.279 25.143-25.143 25.143s-25.143-11.279-25.143-25.143v-44.046zm82.653-98.238-27.754 70.216c-.711 1.785-1.316 3.522-1.831 5.231h-46.684l43.676-75.447zm51.441 0-11.78 72.295c-.176 1.071-.333 2.118-.477 3.152h-47.5l29.821-75.447zm42.975 0 12.296 75.447h-47.301l12.294-75.447zm50.201 0 29.822 75.447h-47.5c-.143-1.03-.299-2.072-.475-3.139l-11.783-72.308zm54.099 0 43.674 75.447h-46.681c-.513-1.702-1.115-3.43-1.823-5.206l-27.764-70.241zm-211.084 98.238c0-.977.011-1.899.029-2.791h50.269c-.006.915-.012 1.833-.012 2.791v44.046c0 13.864-11.279 25.143-25.143 25.143s-25.144-11.279-25.144-25.143v-44.046zm70.286 0c0-.971.005-1.892.012-2.791h50.262c.007.898.012 1.82.012 2.791v44.046c0 13.864-11.279 25.143-25.144 25.143-13.863 0-25.143-11.279-25.143-25.143v-44.046zm70.275-2.791h50.268c.018.892.029 1.814.029 2.791v44.046c0 13.864-11.279 25.143-25.143 25.143s-25.143-11.279-25.143-25.143v-44.046c.001-.957-.005-1.876-.011-2.791zm70.272 0h50.268c.027.886.042 1.809.042 2.791v44.046c0 13.864-11.279 25.143-25.143 25.143s-25.143-11.279-25.143-25.143v-44.046c.001-.948-.009-1.874-.024-2.791zm63.885-87.921 48.518 67.921h-45.902c-.881-2.134-1.945-4.3-3.252-6.54l-39.889-68.907h25.234c6.579 0 11.724 2.532 15.291 7.526zm-358.578 0c3.567-4.994 8.712-7.526 15.291-7.526h25.235l-39.873 68.877c-1.313 2.251-2.382 4.427-3.266 6.57h-45.904zm395.289 362.474h-148.144v-132.572c0-16.542-13.458-30-30-30h-75.713c-16.542 0-30 13.458-30 30v132.572h-28.114c-5.522 0-10 4.477-10 10s4.478 10 10 10h321.971c5.514 0 10 4.486 10 10v20h-472v-20c0-5.514 4.486-10 10-10h40.029c5.522 0 10-4.477 10-10s-4.478-10-10-10h-30.029v-182.875c1.689.193 3.404.302 5.144.302 14.184 0 26.86-6.575 35.143-16.838 8.282 10.263 20.959 16.838 35.143 16.838s26.86-6.575 35.143-16.838c8.282 10.263 20.959 16.838 35.144 16.838 14.184 0 26.86-6.575 35.143-16.838 8.282 10.263 20.959 16.838 35.143 16.838 14.185 0 26.861-6.575 35.144-16.838 8.282 10.263 20.959 16.838 35.143 16.838s26.86-6.575 35.143-16.838c8.282 10.263 20.959 16.838 35.143 16.838s26.86-6.575 35.143-16.838c8.282 10.263 20.959 16.838 35.143 16.838 1.74 0 3.454-.109 5.144-.302v182.875zm-168.144 0h-95.713v-132.572c0-5.514 4.486-10 10-10h75.713c5.514 0 10 4.486 10 10z"></path><path d="m138.143 253.428h-48.141c-16.542 0-30 13.458-30 30v40c0 16.542 13.458 30 30 30h48.141c16.542 0 30-13.458 30-30v-40c0-16.542-13.458-30-30-30zm10 70c0 5.514-4.486 10-10 10h-48.141c-5.514 0-10-4.486-10-10v-40c0-5.514 4.486-10 10-10h48.141c5.514 0 10 4.486 10 10z"></path><path d="m421.999 253.428h-48.142c-16.542 0-29.999 13.458-29.999 30v40c0 16.542 13.457 30 29.999 30h48.142c16.542 0 30-13.458 30-30v-40c0-16.542-13.458-30-30-30zm10 70c0 5.514-4.486 10-10 10h-48.142c-5.514 0-9.999-4.486-9.999-10v-40c0-5.514 4.485-10 9.999-10h48.142c5.514 0 10 4.486 10 10z"></path><path d="m115.032 416h-.008c-5.522 0-9.996 4.477-9.996 10s4.481 10 10.004 10 10-4.477 10-10-4.477-10-10-10z"></path></g></g></svg>