<svg width="140" height="35" viewBox="0 0 145 50" fill="none" xmlns="http://www.w3.org/2000/svg">
<path d="M12.9109 26.9145C13.0414 23.649 13.1067 20.639 13.1067 17.8846C13.1067 16.9071 12.8692 16.1296 12.3941 15.5522C12.1804 15.277 11.9063 15.0555 11.5933 14.9051C11.2802 14.7546 10.9368 14.6793 10.5899 14.6851C9.81722 14.6851 9.1607 15.0628 8.62033 15.8182C8.07997 16.5737 7.81077 17.6073 7.81273 18.9192C7.81273 18.9192 7.8235 25.1626 7.91062 26.9165H0C0.176205 23.718 0.264307 19.3859 0.264307 13.9204C0.264307 8.45485 0.176205 4.12248 0 0.923297H7.87832L7.9116 11.186C8.27769 10.522 8.79005 9.95135 9.40934 9.51774C10.4578 8.76984 12.2002 8.37569 13.5247 8.37569C14.8492 8.37569 16.2755 8.67919 17.2446 9.26253C18.1921 9.82554 18.9568 10.6532 19.4462 11.6452C19.9422 12.6443 20.1905 13.766 20.1911 15.0102V19.809C20.1911 22.7651 20.2463 25.13 20.3566 26.9037L12.9109 26.9145ZM66.8052 8.72057L66.0436 10.6529C63.9467 16.2735 61.7507 21.693 59.4554 26.9116C58.2644 29.578 56.5428 31.7163 54.2907 33.3264C52.0385 34.9365 49.2147 35.7097 45.8191 35.646C45.4002 33.8013 45.0527 32.3627 44.7766 31.33C44.5005 30.2973 44.3899 29.711 43.9778 28.6754C47.5792 29.2962 50.1998 28.2813 51.2149 27.5481C50.4207 25.1714 49.4829 22.6167 48.4015 19.8839C47.3202 17.1511 45.7539 13.43 43.7027 8.72057H51.5487C51.8098 9.83142 52.1739 11.12 52.6412 12.5862C53.1085 14.0524 53.5718 15.4648 54.0313 16.8233C54.1618 17.2451 54.3768 17.8836 54.6764 18.7389C54.9759 19.5942 55.2132 20.3106 55.3881 20.888L56.2495 18.2561C57.9052 13.4356 58.887 10.2587 59.1951 8.7255L66.8052 8.72057ZM75.9365 7.58739C75.937 7.7569 75.9786 7.92372 76.0575 8.07343C76.1365 8.22315 76.2505 8.35124 76.3897 8.44664C76.6883 8.65751 77.1014 8.76294 77.632 8.76294H82.0009V14.6614C80.169 14.5057 78.7127 14.4167 77.632 14.3944C77.6535 18.5264 77.7416 22.6919 77.8963 26.8909H70.0503C70.0718 24.2698 70.0829 20.1378 70.0835 14.4949C69.6202 14.5166 68.8256 14.5721 67.6999 14.6614V8.76196H70.0493V8.12836C70.0493 6.39607 70.4023 4.91801 71.1085 3.69417C71.7879 2.49764 72.8086 1.53405 74.0384 0.928224C75.2862 0.309408 76.7157 0 78.327 0C79.6598 0.004583 80.9855 0.195264 82.2662 0.566591C81.8247 2.18852 81.3851 4.22135 80.9877 6.37242L80.7919 7.3578C80.3398 6.95486 79.805 6.65712 79.2256 6.48574C78.6383 6.28867 78.1929 6.28867 77.7073 6.28867C77.339 6.29226 76.9752 6.37034 76.6374 6.51826C76.3614 6.65951 76.1387 6.88748 76.0031 7.16762C75.9514 7.30118 75.9287 7.44429 75.9365 7.58739ZM91.9985 19.6917C91.9985 23.0026 92.0207 25.4004 92.0651 26.885H84.2524L84.2857 23.1189C84.3294 18.9875 84.3516 15.8015 84.3522 13.5607C84.3522 11.4271 84.33 8.40525 84.2857 4.49528L84.2524 0.896692H92.0651C92.0214 4.04989 91.9992 6.62698 91.9985 8.62795C91.9985 10.849 92.0096 12.4929 92.0318 13.5598C92.0103 14.8926 91.9992 16.9366 91.9985 19.6917ZM96.2872 24.6344C94.5108 22.8903 93.6226 20.5963 93.6226 17.7525C93.6226 14.9771 94.5108 12.7222 96.2872 10.9879C98.0636 9.25366 100.837 8.38752 104.608 8.38949C107.146 8.38949 109.27 8.80597 110.981 9.63894C112.691 10.4719 113.956 11.5946 114.776 13.007C115.592 14.4174 116.001 15.9999 116.002 17.7545C116.002 20.6206 115.058 22.9198 113.171 24.6521C111.283 26.3844 108.431 27.2509 104.613 27.2515C100.839 27.2496 98.0642 26.3772 96.2872 24.6344ZM107.957 20.552C108.663 19.8642 109.016 18.9422 109.016 17.786C109.016 16.6982 108.663 15.8041 107.957 15.1038C107.251 14.4036 106.182 14.0531 104.75 14.0524C103.314 14.0524 102.266 14.3967 101.605 15.0851C100.944 15.7736 100.612 16.6732 100.611 17.7841C100.611 18.9402 100.942 19.8622 101.605 20.55C102.267 21.2378 103.315 21.581 104.75 21.5797C106.182 21.5797 107.251 21.2365 107.957 20.55V20.552ZM135.867 20.3973L138.412 8.72156H145L141.325 26.9155H132.487L130.398 18.4177L128.048 26.9145H119.54L115.866 8.72057H122.454L125.102 20.3973L127.188 8.72057H133.709L135.867 20.3973Z" fill="white"/>
<path d="M49.9012 50C39.0069 50 28.9838 43.5783 24.3662 33.6428L30.365 30.8207C32.1101 34.5545 34.8726 37.7128 38.3311 39.9282C41.7896 42.1436 45.8019 43.325 49.9012 43.3349C58.2886 43.3349 66.0279 38.4149 69.6176 30.799L75.5998 33.6566C70.9196 43.5852 60.8318 50 49.9012 50Z" fill="#4050FF"/>
<path d="M29.3524 19.0927C29.42 19.5854 29.5815 20.2614 30.439 20.9758C31.1517 21.567 32.2588 21.9405 33.5422 21.9405C34.445 21.9462 35.3386 21.7584 36.1637 21.3897C36.9406 21.0542 37.6159 20.5186 38.1216 19.8367C39.6023 20.5718 41.5709 21.3621 44.0274 22.2075C43.3415 23.7664 42.0973 25.008 40.2948 25.9322C38.4923 26.8565 36.1429 27.3183 33.2466 27.3177C29.4856 27.3177 26.7038 26.444 24.9013 24.6966C23.0988 22.9492 22.1975 20.65 22.1975 17.7989C22.1975 15.0156 23.0933 12.7555 24.8847 11.0186C26.6761 9.28169 29.4634 8.41324 33.2466 8.41324C35.5026 8.41324 37.4605 8.79196 39.1201 9.54938C40.7797 10.3068 42.0522 11.3579 42.9378 12.7026C43.3382 13.313 43.6528 13.9762 43.8727 14.6733C44.1388 15.5345 44.2709 16.432 44.2643 17.3338V17.4324C44.2643 17.4324 29.3515 19.0819 29.3524 19.0927ZM30.9872 14.091C30.2785 14.5137 29.7753 14.9611 29.4934 15.8282C29.4508 15.9808 29.4303 16.1388 29.4327 16.2972C29.4327 16.2972 37.1603 15.4488 37.1603 15.4469C37.078 15.0823 36.6552 14.4142 36.0521 14.0496C35.5627 13.754 34.6591 13.4584 33.7027 13.4584C32.5998 13.4571 31.6947 13.6679 30.9872 14.091Z" fill="white"/>
</svg>