<?xml version="1.0" encoding="UTF-8"?>
<svg xmlns="http://www.w3.org/2000/svg" xmlns:xlink="http://www.w3.org/1999/xlink" width="150px" height="55px" viewBox="0 0 149 55" version="1.1">
<g id="surface1">
<path style=" stroke:none;fill-rule:nonzero;fill:rgb(85.490196%,85.490196%,85.490196%);fill-opacity:1;" d="M 0 8.574219 L 8.667969 0 L 17.695312 8.933594 L 9.027344 17.507812 Z M 0 8.574219 "/>
<path style=" stroke:none;fill-rule:nonzero;fill:rgb(0%,80.784314%,85.882353%);fill-opacity:1;" d="M 0.359375 26.082031 L 9.027344 17.507812 L 18.058594 26.441406 L 9.390625 35.015625 Z M 0.359375 26.082031 "/>
<path style=" stroke:none;fill-rule:nonzero;fill:rgb(100%,100%,100%);fill-opacity:1;" d="M 9.027344 17.507812 L 17.695312 8.933594 L 26.726562 17.867188 L 18.058594 26.441406 Z M 9.027344 17.507812 "/>
<path style=" stroke:none;fill-rule:nonzero;fill:rgb(85.490196%,85.490196%,85.490196%);fill-opacity:1;" d="M 38.621094 46.425781 L 29.957031 55 L 20.925781 46.066406 L 29.59375 37.492188 Z M 38.621094 46.425781 "/>
<path style=" stroke:none;fill-rule:nonzero;fill:rgb(0%,80.784314%,85.882353%);fill-opacity:1;" d="M 38.261719 28.917969 L 29.59375 37.492188 L 20.566406 28.558594 L 29.234375 19.984375 Z M 38.261719 28.917969 "/>
<path style=" stroke:none;fill-rule:nonzero;fill:rgb(100%,100%,100%);fill-opacity:1;" d="M 29.59375 37.492188 L 20.925781 46.066406 L 11.898438 37.132812 L 20.566406 28.558594 Z M 29.59375 37.492188 "/>
<path style=" stroke:none;fill-rule:nonzero;fill:rgb(100%,100%,100%);fill-opacity:1;" d="M 55.402344 10.324219 C 60.625 10.324219 61.175781 14.738281 61.175781 16.558594 C 61.175781 18.222656 60.601562 22.796875 55.402344 22.796875 C 53.089844 22.796875 51.679688 22.128906 50.84375 21.042969 L 50.6875 21.042969 L 50.6875 27.5 L 47.339844 27.5 L 47.339844 10.324219 L 50.6875 10.324219 L 50.6875 12.144531 L 50.867188 12.144531 C 51.703125 11.054688 53.113281 10.324219 55.402344 10.324219 Z M 54.433594 19.886719 C 57.628906 19.886719 57.980469 17.449219 57.980469 16.558594 C 57.980469 15.582031 57.628906 13.230469 54.433594 13.230469 C 51.527344 13.230469 50.933594 14.875 50.933594 16.558594 C 50.933594 18.445312 51.527344 19.886719 54.433594 19.886719 Z M 54.433594 19.886719 "/>
<path style=" stroke:none;fill-rule:nonzero;fill:rgb(100%,100%,100%);fill-opacity:1;" d="M 65.492188 22.75 L 62.164062 22.75 L 62.164062 10.390625 L 65.492188 10.390625 Z M 65.492188 22.75 "/>
<path style=" stroke:none;fill-rule:nonzero;fill:rgb(100%,100%,100%);fill-opacity:1;" d="M 79.824219 10.300781 L 74.976562 16.539062 L 79.824219 22.75 L 75.859375 22.75 L 72.996094 19.066406 L 70.132812 22.75 L 66.1875 22.75 L 71.011719 16.539062 L 66.1875 10.300781 L 70.132812 10.300781 L 72.996094 14.007812 L 75.859375 10.300781 Z M 79.824219 10.300781 "/>
<path style=" stroke:none;fill-rule:nonzero;fill:rgb(100%,100%,100%);fill-opacity:1;" d="M 81.796875 17.3125 C 82.039062 18.980469 83.03125 19.800781 85.191406 19.800781 C 87.195312 19.800781 88.1875 19.246094 88.496094 18.421875 L 91.734375 18.421875 C 91.402344 21.109375 89.242188 22.75 85.191406 22.75 C 80.960938 22.75 78.558594 20.621094 78.558594 16.472656 C 78.558594 12.410156 81.027344 10.191406 85.191406 10.191406 C 86.929688 10.191406 88.339844 10.636719 89.375 11.367188 L 89.375 11.34375 C 91.753906 12.988281 91.976562 15.605469 91.800781 17.3125 Z M 85.191406 13.140625 C 83.339844 13.140625 82.324219 13.832031 81.929688 15.09375 L 88.449219 15.09375 C 88.1875 14.164062 87.570312 13.140625 85.191406 13.140625 Z M 85.191406 13.140625 "/>
<path style=" stroke:none;fill-rule:nonzero;fill:rgb(100%,100%,100%);fill-opacity:1;" d="M 96.148438 22.75 L 92.824219 22.75 L 92.824219 6.796875 L 96.148438 6.796875 Z M 96.148438 22.75 "/>
<path style=" stroke:none;fill-rule:nonzero;fill:rgb(100%,100%,100%);fill-opacity:1;" d="M 107.394531 12.144531 L 107.546875 12.144531 L 107.546875 10.300781 L 110.894531 10.300781 L 110.894531 22.75 L 107.546875 22.75 L 107.546875 21.019531 L 107.4375 21.019531 C 106.601562 22.109375 105.191406 22.75 102.855469 22.75 C 97.675781 22.75 97.105469 18.203125 97.105469 16.539062 C 97.105469 14.71875 97.65625 10.300781 102.878906 10.300781 C 105.167969 10.300781 106.554688 11.035156 107.394531 12.144531 Z M 103.847656 19.867188 C 106.730469 19.867188 107.328125 18.425781 107.328125 16.539062 C 107.328125 14.851562 106.730469 13.210938 103.847656 13.210938 C 100.628906 13.210938 100.300781 15.5625 100.300781 16.539062 C 100.300781 17.425781 100.652344 19.867188 103.847656 19.867188 Z M 103.847656 19.867188 "/>
<path style=" stroke:none;fill-rule:nonzero;fill:rgb(100%,100%,100%);fill-opacity:1;" d="M 116.691406 13.1875 L 116.691406 17.867188 C 116.691406 19.667969 117.484375 19.421875 120.703125 19.246094 L 120.703125 22.527344 C 120.703125 22.527344 120.042969 22.75 116.691406 22.75 C 113.320312 22.75 113.320312 19.976562 113.320312 18.179688 L 113.320312 13.1875 L 111.691406 13.1875 L 111.691406 10.347656 L 113.320312 10.347656 L 113.320312 6.75 L 116.691406 6.75 L 116.691406 10.347656 L 120.703125 10.347656 L 120.703125 13.1875 Z M 116.691406 13.1875 "/>
<path style=" stroke:none;fill-rule:nonzero;fill:rgb(100%,100%,100%);fill-opacity:1;" d="M 124.289062 17.3125 C 124.53125 18.980469 125.523438 19.800781 127.683594 19.800781 C 129.6875 19.800781 130.679688 19.246094 130.988281 18.421875 L 134.226562 18.421875 C 133.894531 21.109375 131.734375 22.75 127.683594 22.75 C 123.453125 22.75 121.050781 20.621094 121.050781 16.472656 C 121.050781 12.410156 123.519531 10.191406 127.683594 10.191406 C 129.421875 10.191406 130.832031 10.636719 131.867188 11.367188 L 131.867188 11.34375 C 134.246094 12.988281 134.46875 15.605469 134.292969 17.3125 Z M 127.683594 13.140625 C 125.832031 13.140625 124.816406 13.832031 124.421875 15.09375 L 130.941406 15.09375 C 130.679688 14.164062 130.0625 13.140625 127.683594 13.140625 Z M 127.683594 13.140625 "/>
<path style=" stroke:none;fill-rule:nonzero;fill:rgb(100%,100%,100%);fill-opacity:1;" d="M 145.628906 6.730469 L 148.980469 6.730469 L 148.980469 22.75 L 145.628906 22.75 L 145.628906 21.019531 L 145.476562 21.019531 C 144.640625 22.109375 143.230469 22.75 140.894531 22.75 C 135.714844 22.75 135.144531 18.203125 135.144531 16.539062 C 135.144531 14.71875 135.695312 10.300781 140.914062 10.300781 C 143.207031 10.300781 144.59375 11.035156 145.433594 12.144531 L 145.628906 12.144531 Z M 141.886719 19.867188 C 144.769531 19.867188 145.367188 18.421875 145.367188 16.539062 C 145.367188 14.851562 144.769531 13.207031 141.886719 13.207031 C 138.667969 13.207031 138.335938 15.5625 138.335938 16.539062 C 138.335938 17.425781 138.691406 19.867188 141.886719 19.867188 Z M 141.886719 19.867188 "/>
<path style=" stroke:none;fill-rule:nonzero;fill:rgb(0%,80.784314%,85.882353%);fill-opacity:1;" d="M 60.875 43.371094 L 65.476562 43.371094 C 65.109375 47.554688 61.457031 49.878906 56.515625 49.878906 C 51.453125 49.878906 47.339844 46.933594 47.339844 41.167969 C 47.339844 35.558594 51.453125 32.460938 56.515625 32.460938 C 61.457031 32.460938 65.078125 34.878906 65.476562 39 L 60.902344 39 C 60.503906 37.699219 59.371094 36.707031 56.515625 36.707031 C 53.476562 36.707031 51.882812 38.226562 51.882812 41.167969 C 51.882812 44.269531 53.476562 45.664062 56.515625 45.664062 C 59.460938 45.664062 60.535156 44.578125 60.875 43.371094 Z M 60.875 43.371094 "/>
<path style=" stroke:none;fill-rule:nonzero;fill:rgb(0%,80.784314%,85.882353%);fill-opacity:1;" d="M 77.742188 32.492188 C 85.046875 32.492188 85.507812 38.660156 85.507812 41.199219 L 85.507812 49.878906 L 80.871094 49.878906 L 80.871094 41.199219 C 80.871094 39.835938 80.871094 36.550781 76.394531 36.550781 C 72.371094 36.550781 71.484375 39.15625 71.484375 41.511719 L 71.484375 49.878906 L 66.820312 49.878906 L 66.820312 27.5 L 71.484375 27.5 L 71.484375 35.0625 L 71.699219 35.0625 C 72.800781 33.511719 74.675781 32.492188 77.742188 32.492188 Z M 77.742188 32.492188 "/>
<path style=" stroke:none;fill-rule:nonzero;fill:rgb(0%,80.784314%,85.882353%);fill-opacity:1;" d="M 92.128906 49.878906 L 87.496094 49.878906 L 87.496094 32.613281 L 92.128906 32.613281 Z M 92.128906 49.878906 "/>
<path style=" stroke:none;fill-rule:nonzero;fill:rgb(0%,80.784314%,85.882353%);fill-opacity:1;" d="M 98.574219 49.878906 L 93.9375 49.878906 L 93.9375 27.59375 L 98.574219 27.59375 Z M 98.574219 49.878906 "/>
<path style=" stroke:none;fill-rule:nonzero;fill:rgb(0%,80.784314%,85.882353%);fill-opacity:1;" d="M 105.015625 49.878906 L 100.382812 49.878906 L 100.382812 32.613281 L 105.015625 32.613281 Z M 105.015625 49.878906 "/>
<path style=" stroke:none;fill-rule:nonzero;fill:rgb(0%,80.784314%,85.882353%);fill-opacity:1;" d="M 110.886719 42.285156 C 111.222656 44.609375 112.605469 45.757812 115.613281 45.757812 C 118.402344 45.757812 119.785156 44.980469 120.214844 43.835938 L 124.726562 43.835938 C 124.265625 47.585938 121.257812 49.878906 115.613281 49.878906 C 109.71875 49.878906 106.375 46.902344 106.375 41.105469 C 106.375 35.433594 109.8125 32.335938 115.613281 32.335938 C 118.035156 32.335938 120 32.957031 121.441406 33.976562 L 121.441406 33.949219 C 124.757812 36.242188 125.0625 39.898438 124.816406 42.285156 Z M 115.613281 36.457031 C 113.035156 36.457031 111.621094 37.417969 111.070312 39.183594 L 120.152344 39.183594 C 119.785156 37.882812 118.925781 36.457031 115.613281 36.457031 Z M 115.613281 36.457031 "/>
<path style=" stroke:none;fill-rule:nonzero;fill:rgb(0%,80.784314%,85.882353%);fill-opacity:1;" d="M 134.667969 39.339844 C 138.566406 39.929688 142.984375 40.613281 142.984375 44.734375 C 142.984375 49.042969 139.914062 49.878906 134.636719 49.878906 C 130.742188 49.878906 128.070312 49.167969 126.691406 47.769531 C 125.492188 46.5625 125.492188 45.105469 125.523438 44.207031 L 125.523438 43.867188 L 130.3125 43.867188 L 130.3125 44.019531 C 130.3125 45.507812 131.414062 46.191406 134.515625 46.191406 C 136.386719 46.191406 138.167969 45.941406 138.167969 44.796875 C 138.167969 43.492188 136.511719 43.246094 134.636719 43.027344 C 134.390625 43 134.148438 42.96875 133.902344 42.9375 C 128.960938 42.285156 125.890625 41.167969 125.890625 37.699219 C 125.890625 35.28125 127.273438 32.398438 133.902344 32.398438 C 141.019531 32.398438 142.523438 35.589844 142.523438 38.253906 L 142.523438 38.410156 L 137.769531 38.410156 L 137.769531 38.253906 C 137.769531 36.890625 136.601562 36.148438 133.902344 36.148438 C 131.292969 36.148438 130.742188 37.109375 130.742188 37.636719 C 130.742188 38.410156 131.261719 38.84375 134.269531 39.308594 Z M 134.667969 39.339844 "/>
<path style=" stroke:none;fill-rule:nonzero;fill:rgb(0%,80.784314%,85.882353%);fill-opacity:1;" d="M 87.3125 27.683594 L 92.074219 27.683594 L 92.074219 31.167969 L 87.3125 31.167969 Z M 87.3125 27.683594 "/>
<path style=" stroke:none;fill-rule:nonzero;fill:rgb(0%,80.784314%,85.882353%);fill-opacity:1;" d="M 100.492188 27.683594 L 105.070312 27.683594 L 105.070312 31.167969 L 100.492188 31.167969 Z M 100.492188 27.683594 "/>
<path style=" stroke:none;fill-rule:nonzero;fill:rgb(100%,100%,100%);fill-opacity:1;" d="M 144.347656 45.511719 L 148.980469 45.511719 L 148.980469 49.605469 L 144.347656 49.605469 Z M 144.347656 45.511719 "/>
</g>
</svg>
