<svg width="512" height="512" viewBox="0 0 512 512" fill="none" xmlns="http://www.w3.org/2000/svg">
<path d="M0 100C0 44.7715 44.7715 0 100 0H412C467.228 0 512 44.7715 512 100V412C512 467.228 467.228 512 412 512H100C44.7715 512 0 467.228 0 412V100Z" fill="black"/>
<path d="M127 129.294L185.124 71.8768L245.669 131.686L187.546 189.103L127 129.294Z" fill="#DADADA"/>
<path d="M129.421 246.519L187.545 189.101L248.091 248.91L189.967 306.327L129.421 246.519Z" fill="#00CEDB"/>
<path d="M187.546 189.103L245.669 131.686L306.213 191.494L248.091 248.91L187.546 189.103Z" fill="white"/>
<path d="M386 382.706L327.876 440.123L267.33 380.314L325.454 322.897L386 382.706Z" fill="#DADADA"/>
<path d="M383.578 265.481L325.455 322.899L264.91 263.09L323.034 205.673L383.578 265.481Z" fill="#00CEDB"/>
<path d="M325.454 322.897L267.33 380.314L206.787 320.506L264.91 263.09L325.454 322.897Z" fill="white"/>
</svg>
