<svg xmlns="http://www.w3.org/2000/svg" width="170" height="25" viewBox="0 0 217 30" fill="none"><path d="M0 30V7.05632H4.35169L4.47874 10.7016L3.65288 10.4259C3.80111 9.7724 4.1611 9.16996 4.73286 8.61858C5.32579 8.0672 6.05636 7.61792 6.92458 7.27075C7.7928 6.92359 8.70337 6.75 9.6563 6.75C11.1174 6.75 12.4092 7.11759 13.5315 7.85277C14.675 8.56752 15.575 9.55797 16.2315 10.8241C16.9091 12.0698 17.2479 13.5096 17.2479 15.1433C17.2479 16.7566 16.9197 18.1963 16.2632 19.4625C15.6068 20.7286 14.7068 21.7293 13.5633 22.4644C12.4198 23.1792 11.1174 23.5366 9.6563 23.5366C8.6822 23.5366 7.75045 23.363 6.86105 23.0158C5.99283 22.6482 5.25167 22.1683 4.63756 21.5761C4.02346 20.9839 3.64229 20.3508 3.49406 19.6769L4.54227 19.248V30H0ZM8.63985 19.7994C9.46571 19.7994 10.1963 19.6054 10.8316 19.2174C11.4669 18.8294 11.9645 18.2882 12.3245 17.5939C12.6845 16.8791 12.8645 16.0623 12.8645 15.1433C12.8645 14.2243 12.6845 13.4177 12.3245 12.7233C11.9645 12.029 11.4669 11.4878 10.8316 11.0998C10.2175 10.7118 9.48689 10.5178 8.63985 10.5178C7.7928 10.5178 7.05164 10.7118 6.41636 11.0998C5.78107 11.4674 5.28344 12.0086 4.92344 12.7233C4.56345 13.4177 4.38345 14.2243 4.38345 15.1433C4.38345 16.0623 4.56345 16.8791 4.92344 17.5939C5.28344 18.2882 5.78107 18.8294 6.41636 19.2174C7.05164 19.6054 7.7928 19.7994 8.63985 19.7994Z" fill="white"/><path d="M18.8168 23.2609V7.05632H23.3273V23.2609H18.8168Z" fill="white"/><path d="M36.5305 23.2609L32.3694 17.5326L31.0988 15.8172L24.3013 7.05632H29.7647L33.8305 12.6008L41.9304 23.2609H36.5305ZM24.2378 23.2609L30.94 14.4081L33.4176 17.2569L29.5424 23.2609H24.2378ZM35.0376 15.9704L32.6235 13.1215L36.2129 7.05632H41.5175L35.0376 15.9704Z" fill="white"/><path d="M49.5069 23.5672C47.6857 23.5672 46.0975 23.2098 44.7423 22.4951C43.387 21.7803 42.3282 20.8001 41.5659 19.5544C40.8035 18.3086 40.4223 16.8791 40.4223 15.2658C40.4223 14.0201 40.6341 12.8765 41.0576 11.835C41.4812 10.7935 42.0741 9.89493 42.8364 9.13933C43.5988 8.36331 44.4987 7.77108 45.5364 7.36265C46.5952 6.9338 47.7387 6.71937 48.9669 6.71937C50.1104 6.71937 51.1692 6.92359 52.1433 7.33202C53.1174 7.72003 53.9539 8.28162 54.6527 9.0168C55.3727 9.73156 55.9233 10.5791 56.3044 11.5593C56.6856 12.5395 56.855 13.6117 56.8126 14.7757L56.7809 16.1235H43.2811L42.5505 13.4585H53.0645L52.5563 14.0099V13.336C52.5139 12.7846 52.3233 12.2843 51.9845 11.835C51.6669 11.3857 51.2539 11.0385 50.7457 10.7935C50.2375 10.5484 49.6657 10.4259 49.0304 10.4259C48.0987 10.4259 47.3046 10.5995 46.6481 10.9466C46.0128 11.2938 45.5258 11.8043 45.187 12.4783C44.8482 13.1522 44.6787 13.969 44.6787 14.9289C44.6787 15.9091 44.8905 16.7566 45.314 17.4713C45.7587 18.1861 46.3728 18.7477 47.1563 19.1561C47.961 19.5441 48.9034 19.7381 49.9834 19.7381C50.7245 19.7381 51.4022 19.6258 52.0163 19.4012C52.6304 19.1766 53.2868 18.7885 53.9856 18.2372L56.1456 21.1472C55.5315 21.6782 54.8539 22.1275 54.1127 22.4951C53.3715 22.8422 52.6092 23.1077 51.8257 23.2915C51.0422 23.4753 50.2692 23.5672 49.5069 23.5672Z" fill="white"/><path d="M57.9542 23.2609V0.592888H62.4647V23.2609H57.9542Z" fill="white"/><path d="M70.7978 23.5672C69.4002 23.5672 68.1402 23.1996 67.0179 22.4644C65.8955 21.7293 65.0061 20.7286 64.3497 19.4625C63.6932 18.1963 63.365 16.7464 63.365 15.1127C63.365 13.4789 63.6932 12.0392 64.3497 10.7935C65.0273 9.52734 65.9379 8.53689 67.0814 7.82214C68.2249 7.08696 69.5272 6.71937 70.9884 6.71937C71.8142 6.71937 72.566 6.8419 73.2436 7.08696C73.9424 7.3116 74.546 7.62813 75.0542 8.03656C75.5836 8.44499 76.0283 8.91469 76.3883 9.44565C76.7483 9.97661 77.0024 10.5484 77.1506 11.1611L76.1977 11.0079V7.05632H80.6764V23.2609H76.1342V19.3706L77.1506 19.2787C76.9812 19.8505 76.7059 20.3916 76.3248 20.9022C75.9436 21.4127 75.4671 21.8722 74.8954 22.2806C74.3448 22.6686 73.7201 22.9852 73.0213 23.2302C72.3225 23.4549 71.5813 23.5672 70.7978 23.5672ZM72.0366 19.7994C72.8836 19.7994 73.6248 19.6054 74.2601 19.2174C74.8954 18.8294 75.3824 18.2882 75.7212 17.5939C76.0812 16.8791 76.2612 16.052 76.2612 15.1127C76.2612 14.1937 76.0812 13.387 75.7212 12.6927C75.3824 11.9984 74.8954 11.4572 74.2601 11.0692C73.6248 10.6607 72.8836 10.4565 72.0366 10.4565C71.2107 10.4565 70.4802 10.6607 69.8449 11.0692C69.2308 11.4572 68.7437 11.9984 68.3837 12.6927C68.0237 13.387 67.8437 14.1937 67.8437 15.1127C67.8437 16.052 68.0237 16.8791 68.3837 17.5939C68.7437 18.2882 69.2308 18.8294 69.8449 19.2174C70.4802 19.6054 71.2107 19.7994 72.0366 19.7994Z" fill="white"/><path d="M84.5951 23.2609V2.95158H89.1056V23.2609H84.5951ZM81.4504 10.9466V7.05632H92.5361V10.9466H81.4504Z" fill="white"/><path d="M101.07 23.5672C99.2491 23.5672 97.6609 23.2098 96.3056 22.4951C94.9504 21.7803 93.8916 20.8001 93.1292 19.5544C92.3669 18.3086 91.9857 16.8791 91.9857 15.2658C91.9857 14.0201 92.1975 12.8765 92.621 11.835C93.0445 10.7935 93.6375 9.89493 94.3998 9.13933C95.1621 8.36331 96.0621 7.77108 97.0997 7.36265C98.1586 6.9338 99.3021 6.71937 100.53 6.71937C101.674 6.71937 102.733 6.92359 103.707 7.33202C104.681 7.72003 105.517 8.28162 106.216 9.0168C106.936 9.73156 107.487 10.5791 107.868 11.5593C108.249 12.5395 108.418 13.6117 108.376 14.7757L108.344 16.1235H94.8445L94.1139 13.4585H104.628L104.12 14.0099V13.336C104.077 12.7846 103.887 12.2843 103.548 11.835C103.23 11.3857 102.817 11.0385 102.309 10.7935C101.801 10.5484 101.229 10.4259 100.594 10.4259C99.6621 10.4259 98.8679 10.5995 98.2115 10.9466C97.5762 11.2938 97.0892 11.8043 96.7503 12.4783C96.4115 13.1522 96.2421 13.969 96.2421 14.9289C96.2421 15.9091 96.4539 16.7566 96.8774 17.4713C97.3221 18.1861 97.9362 18.7477 98.7197 19.1561C99.5244 19.5441 100.467 19.7381 101.547 19.7381C102.288 19.7381 102.966 19.6258 103.58 19.4012C104.194 19.1766 104.85 18.7885 105.549 18.2372L107.709 21.1472C107.095 21.6782 106.417 22.1275 105.676 22.4951C104.935 22.8422 104.173 23.1077 103.389 23.2915C102.606 23.4753 101.833 23.5672 101.07 23.5672Z" fill="white"/><path d="M116.061 23.5672C114.6 23.5672 113.287 23.2098 112.122 22.4951C110.958 21.7599 110.036 20.7694 109.359 19.5237C108.702 18.2576 108.374 16.7974 108.374 15.1433C108.374 13.53 108.702 12.0903 109.359 10.8241C110.036 9.55797 110.947 8.55731 112.09 7.82214C113.255 7.08696 114.579 6.71937 116.061 6.71937C116.844 6.71937 117.596 6.8419 118.316 7.08696C119.057 7.3116 119.714 7.62813 120.286 8.03656C120.879 8.44499 121.355 8.90448 121.715 9.41502C122.075 9.90514 122.276 10.4259 122.318 10.9773L121.175 11.1611V0.592888H125.685V23.2609H121.429L121.239 19.5237L122.128 19.6156C122.086 20.1262 121.895 20.6163 121.556 21.086C121.217 21.5557 120.762 21.9845 120.19 22.3725C119.64 22.7401 119.004 23.0362 118.284 23.2609C117.586 23.4651 116.844 23.5672 116.061 23.5672ZM117.077 19.9526C117.924 19.9526 118.666 19.7484 119.301 19.3399C119.936 18.9315 120.434 18.3699 120.794 17.6551C121.154 16.9404 121.334 16.1031 121.334 15.1433C121.334 14.2039 121.154 13.3768 120.794 12.6621C120.434 11.9269 119.936 11.3653 119.301 10.9773C118.666 10.5688 117.924 10.3646 117.077 10.3646C116.23 10.3646 115.489 10.5688 114.854 10.9773C114.24 11.3653 113.753 11.9269 113.393 12.6621C113.054 13.3768 112.885 14.2039 112.885 15.1433C112.885 16.1031 113.054 16.9404 113.393 17.6551C113.753 18.3699 114.24 18.9315 114.854 19.3399C115.489 19.7484 116.23 19.9526 117.077 19.9526Z" fill="white"/><path d="M135.165 23.5672C133.556 23.5672 132.116 23.1996 130.845 22.4644C129.575 21.7293 128.569 20.7286 127.828 19.4625C127.108 18.1963 126.748 16.7566 126.748 15.1433C126.748 13.5504 127.108 12.1209 127.828 10.8547C128.569 9.56818 129.575 8.55731 130.845 7.82214C132.116 7.08696 133.556 6.71937 135.165 6.71937C136.669 6.71937 138.045 6.98485 139.294 7.51581C140.544 8.04677 141.518 8.78195 142.217 9.72134L139.739 12.6008C139.443 12.2128 139.072 11.8656 138.627 11.5593C138.183 11.2325 137.696 10.9773 137.166 10.7935C136.658 10.6097 136.129 10.5178 135.578 10.5178C134.71 10.5178 133.937 10.722 133.259 11.1304C132.603 11.5184 132.084 12.0596 131.703 12.754C131.322 13.4483 131.131 14.2447 131.131 15.1433C131.131 16.0214 131.322 16.8076 131.703 17.502C132.105 18.1759 132.645 18.7273 133.323 19.1561C134 19.5646 134.763 19.7688 135.61 19.7688C136.16 19.7688 136.679 19.6973 137.166 19.5544C137.653 19.391 138.109 19.1561 138.532 18.8498C138.977 18.5435 139.379 18.1759 139.739 17.747L142.185 20.6265C141.465 21.5046 140.47 22.2194 139.199 22.7708C137.929 23.3017 136.584 23.5672 135.165 23.5672Z" fill="white"/><path d="M142.852 23.2609V0.592888H147.299V10.3646L146.409 10.7322C146.642 9.99704 147.055 9.33333 147.648 8.74111C148.262 8.12846 148.993 7.63834 149.84 7.27075C150.687 6.90316 151.576 6.71937 152.508 6.71937C153.779 6.71937 154.837 6.96443 155.684 7.45455C156.553 7.94467 157.199 8.69006 157.622 9.69071C158.067 10.671 158.289 11.886 158.289 13.336V23.2609H153.779V13.6729C153.779 12.9377 153.673 12.3251 153.461 11.835C153.249 11.3449 152.921 10.9875 152.476 10.7628C152.053 10.5178 151.523 10.4157 150.888 10.4565C150.38 10.4565 149.903 10.5382 149.459 10.7016C149.035 10.8445 148.665 11.059 148.347 11.3449C148.05 11.6308 147.807 11.9575 147.616 12.3251C147.447 12.6927 147.362 13.0909 147.362 13.5198V23.2609H145.139C144.652 23.2609 144.218 23.2609 143.836 23.2609C143.455 23.2609 143.127 23.2609 142.852 23.2609Z" fill="white"/><path d="M160.769 23.2609V7.05632H165.279V23.2609H160.769Z" fill="white"/><path d="M167.905 23.2609V0.592888H172.416V23.2609H167.905Z" fill="white"/><path d="M175.151 23.2609V7.05632H179.661V23.2609H175.151Z" fill="white"/><path d="M190.228 23.5672C188.407 23.5672 186.819 23.2098 185.464 22.4951C184.108 21.7803 183.05 20.8001 182.287 19.5544C181.525 18.3086 181.144 16.8791 181.144 15.2658C181.144 14.0201 181.355 12.8765 181.779 11.835C182.202 10.7935 182.795 9.89493 183.558 9.13933C184.32 8.36331 185.22 7.77108 186.258 7.36265C187.317 6.9338 188.46 6.71937 189.688 6.71937C190.832 6.71937 191.891 6.92359 192.865 7.33202C193.839 7.72003 194.675 8.28162 195.374 9.0168C196.094 9.73156 196.645 10.5791 197.026 11.5593C197.407 12.5395 197.576 13.6117 197.534 14.7757L197.502 16.1235H184.002L183.272 13.4585H193.786L193.278 14.0099V13.336C193.235 12.7846 193.045 12.2843 192.706 11.835C192.388 11.3857 191.975 11.0385 191.467 10.7935C190.959 10.5484 190.387 10.4259 189.752 10.4259C188.82 10.4259 188.026 10.5995 187.369 10.9466C186.734 11.2938 186.247 11.8043 185.908 12.4783C185.569 13.1522 185.4 13.969 185.4 14.9289C185.4 15.9091 185.612 16.7566 186.035 17.4713C186.48 18.1861 187.094 18.7477 187.878 19.1561C188.682 19.5441 189.625 19.7381 190.705 19.7381C191.446 19.7381 192.123 19.6258 192.738 19.4012C193.352 19.1766 194.008 18.7885 194.707 18.2372L196.867 21.1472C196.253 21.6782 195.575 22.1275 194.834 22.4951C194.093 22.8422 193.331 23.1077 192.547 23.2915C191.763 23.4753 190.991 23.5672 190.228 23.5672Z" fill="white"/><path d="M204.298 23.5672C202.731 23.5672 201.333 23.3221 200.105 22.832C198.898 22.3215 197.924 21.6271 197.183 20.749L199.978 18.421C200.634 19.0949 201.365 19.585 202.17 19.8913C202.974 20.1772 203.779 20.3202 204.584 20.3202C204.901 20.3202 205.187 20.2895 205.441 20.2283C205.717 20.1466 205.95 20.0445 206.14 19.9219C206.331 19.779 206.468 19.6156 206.553 19.4318C206.659 19.2276 206.712 19.0132 206.712 18.7885C206.712 18.3393 206.521 17.9819 206.14 17.7164C205.928 17.6143 205.6 17.4918 205.155 17.3488C204.711 17.1854 204.139 17.0119 203.44 16.8281C202.36 16.5626 201.439 16.2563 200.677 15.9091C199.935 15.5415 199.343 15.1331 198.898 14.6838C198.517 14.2549 198.22 13.7955 198.008 13.3053C197.818 12.7948 197.723 12.2332 197.723 11.6206C197.723 10.8854 197.892 10.2217 198.231 9.62945C198.57 9.0168 199.036 8.49605 199.628 8.06719C200.243 7.63834 200.941 7.3116 201.725 7.08696C202.508 6.8419 203.334 6.71937 204.202 6.71937C205.071 6.71937 205.918 6.82148 206.744 7.02569C207.569 7.22991 208.332 7.52602 209.031 7.91403C209.751 8.28162 210.375 8.72069 210.905 9.23123L208.491 11.8043C208.109 11.4572 207.675 11.1406 207.188 10.8547C206.722 10.5688 206.235 10.3442 205.727 10.1808C205.219 10.0175 204.764 9.93577 204.361 9.93577C204.001 9.93577 203.673 9.9664 203.377 10.0277C203.101 10.0889 202.868 10.1808 202.678 10.3034C202.487 10.4259 202.339 10.5893 202.233 10.7935C202.148 10.9773 202.106 11.1815 202.106 11.4061C202.106 11.6308 202.159 11.8452 202.265 12.0494C202.392 12.2536 202.561 12.4272 202.773 12.5702C203.006 12.6927 203.345 12.8356 203.79 12.999C204.255 13.1624 204.88 13.3462 205.664 13.5504C206.68 13.8159 207.538 14.112 208.237 14.4387C208.956 14.7655 209.528 15.1433 209.952 15.5721C210.312 15.9397 210.576 16.3584 210.746 16.8281C210.915 17.2978 211 17.8185 211 18.3903C211 19.391 210.704 20.2895 210.111 21.086C209.539 21.862 208.745 22.4746 207.728 22.9239C206.712 23.3528 205.568 23.5672 204.298 23.5672Z" fill="white"/><path d="M180 3.5C180 4.88071 178.881 6 177.5 6C176.119 6 175 4.88071 175 3.5C175 2.11929 176.119 1 177.5 1C178.881 1 180 2.11929 180 3.5Z" fill="white"/><path d="M217 21.5C217 22.8807 215.881 24 214.5 24C213.119 24 212 22.8807 212 21.5C212 20.1193 213.119 19 214.5 19C215.881 19 217 20.1193 217 21.5Z" fill="#00CEDB"/><path d="M165.5 3.5C165.5 4.88071 164.381 6 163 6C161.619 6 160.5 4.88071 160.5 3.5C160.5 2.11929 161.619 1 163 1C164.381 1 165.5 2.11929 165.5 3.5Z" fill="white"/></svg>