<svg xmlns="http://www.w3.org/2000/svg" width="130" height="25" viewBox="0 0 1192 237" fill="none">
  <path d="M98.948 235.816C42.6602 225.744 0 177.158 0 118.501C0 53.3253 53.3253 0 118.501 0C183.676 0 237.001 53.3253 237.001 118.501C237.001 177.158 194.341 225.744 138.053 235.816L131.536 230.484H105.466L98.948 235.816Z" fill="url(#paint0_linear_611_56)"/>
  <path d="M164.715 151.68L170.047 118.499H138.645V95.3918C138.645 85.9118 142.2 78.8017 156.42 78.8017H171.825V48.5841C163.53 47.3991 154.05 46.2141 145.755 46.2141C118.499 46.2141 99.5393 62.8041 99.5393 92.4293V118.499H69.9142V151.68H99.5393V235.222C106.057 236.407 112.574 237 119.092 237C125.609 237 132.127 236.407 138.645 235.222V151.68H164.715Z" fill="white"/>
  <path d="M447.571 0C398.085 0 383.612 0.0510505 380.799 0.284424C370.643 1.12858 364.324 2.72755 357.44 6.15523C352.134 8.7898 347.95 11.8437 343.82 16.1247C336.299 23.9317 331.741 33.5365 330.091 44.9536C329.289 50.4962 329.056 51.6266 329.008 79.9378C328.99 89.3748 329.008 101.795 329.008 118.454C329.008 167.9 329.063 182.358 329.3 185.166C330.12 195.047 331.67 201.265 334.952 208.065C341.224 221.083 353.202 230.856 367.314 234.502C372.2 235.76 377.597 236.453 384.525 236.781C387.461 236.909 417.38 237 447.318 237C477.255 237 507.192 236.964 510.055 236.818C518.077 236.44 522.736 235.815 527.886 234.484C542.089 230.819 553.849 221.193 560.249 207.992C563.467 201.356 565.098 194.902 565.837 185.536C565.997 183.494 566.065 150.936 566.065 118.423C566.065 85.9034 565.992 53.4061 565.831 51.3641C565.084 41.8468 563.452 35.4473 560.13 28.6831C557.404 23.1459 554.378 19.0108 549.984 14.7828C542.142 7.29293 532.552 2.73485 521.124 1.08665C515.587 0.286247 514.484 0.0492272 486.151 0H447.571Z" fill="url(#paint1_radial_611_56)"/>
  <path d="M447.516 30.9949C423.749 30.9949 420.766 31.0989 411.431 31.5237C402.114 31.9503 395.755 33.4253 390.19 35.5895C384.434 37.8248 379.552 40.8149 374.687 45.6811C369.819 50.5454 366.829 55.428 364.587 61.1822C362.417 66.7485 360.94 73.1097 360.521 82.4228C360.103 91.7578 359.994 94.7424 359.994 118.51C359.994 142.278 360.1 145.251 360.523 154.586C360.951 163.903 362.426 170.262 364.589 175.827C366.826 181.583 369.816 186.466 374.682 191.33C379.545 196.198 384.427 199.195 390.179 201.431C395.748 203.595 402.109 205.07 411.424 205.496C420.759 205.921 423.74 206.025 447.505 206.025C471.275 206.025 474.249 205.921 483.584 205.496C492.9 205.07 499.267 203.595 504.835 201.431C510.589 199.195 515.465 196.198 520.327 191.33C525.195 186.466 528.185 181.583 530.428 175.829C532.579 170.262 534.056 163.901 534.494 154.588C534.913 145.253 535.022 142.278 535.022 118.51C535.022 94.7424 534.913 91.7596 534.494 82.4246C534.056 73.1079 532.579 66.7485 530.428 61.184C528.185 55.428 525.195 50.5454 520.327 45.6811C515.459 40.813 510.591 37.8229 504.83 35.5895C499.251 33.4253 492.888 31.9503 483.571 31.5237C474.236 31.0989 471.264 30.9949 447.489 30.9949H447.516ZM439.666 46.7659C441.996 46.7622 444.596 46.7659 447.516 46.7659C470.883 46.7659 473.652 46.8497 482.88 47.2691C491.413 47.6593 496.044 49.085 499.128 50.2829C503.212 51.8691 506.124 53.7653 509.185 56.8283C512.248 59.8913 514.145 62.8085 515.734 66.8925C516.932 69.9738 518.36 74.6048 518.748 83.1375C519.168 92.3631 519.259 95.1344 519.259 118.49C519.259 141.846 519.168 144.617 518.748 153.842C518.358 162.375 516.932 167.006 515.734 170.087C514.148 174.171 512.248 177.08 509.185 180.141C506.122 183.204 503.214 185.1 499.128 186.686C496.047 187.889 491.413 189.312 482.88 189.702C473.654 190.121 470.883 190.212 447.516 190.212C424.148 190.212 421.379 190.121 412.153 189.702C403.62 189.308 398.989 187.882 395.903 186.684C391.819 185.098 388.901 183.202 385.838 180.139C382.775 177.076 380.879 174.166 379.289 170.08C378.091 166.999 376.664 162.368 376.275 153.835C375.856 144.61 375.772 141.838 375.772 118.468C375.772 95.0979 375.856 92.3412 376.275 83.1156C376.666 74.5829 378.091 69.9519 379.289 66.867C380.876 62.783 382.775 59.8658 385.838 56.8028C388.901 53.7397 391.819 51.8436 395.903 50.2537C398.987 49.0504 403.62 47.6283 412.153 47.2363C420.226 46.8716 423.355 46.7622 439.666 46.744V46.7659ZM494.231 61.297C488.433 61.297 483.729 65.9955 483.729 71.7952C483.729 77.5931 488.433 82.297 494.231 82.297C500.029 82.297 504.733 77.5931 504.733 71.7952C504.733 65.9973 500.029 61.2934 494.231 61.2934V61.297ZM447.516 73.5674C422.697 73.5674 402.574 93.6904 402.574 118.51C402.574 143.33 422.697 163.444 447.516 163.444C472.336 163.444 492.452 143.33 492.452 118.51C492.452 93.6904 472.336 73.5674 447.516 73.5674ZM447.516 89.3383C463.626 89.3383 476.688 102.398 476.688 118.51C476.688 134.62 463.626 147.682 447.516 147.682C431.405 147.682 418.345 134.62 418.345 118.51C418.345 102.398 431.405 89.3383 447.516 89.3383Z" fill="white"/>
  <path fill-rule="evenodd" clip-rule="evenodd" d="M981.333 237H1165.67C1180.21 237 1192 225.21 1192 210.667V26.3333C1192 11.7898 1180.21 0 1165.67 0H981.333C966.79 0 955 11.7898 955 26.3333V210.667C955 225.21 966.79 237 981.333 237Z" fill="#007EBB"/>
  <path fill-rule="evenodd" clip-rule="evenodd" d="M1159.08 204.083H1123.91V144.182C1123.91 127.759 1117.67 118.581 1104.67 118.581C1090.53 118.581 1083.14 128.132 1083.14 144.182V204.083H1049.25V89.9722H1083.14V105.343C1083.14 105.343 1093.34 86.486 1117.55 86.486C1141.75 86.486 1159.08 101.266 1159.08 131.835V204.083ZM1008.82 75.0303C997.272 75.0303 987.917 65.6018 987.917 53.9735C987.917 42.3452 997.272 32.9167 1008.82 32.9167C1020.36 32.9167 1029.71 42.3452 1029.71 53.9735C1029.71 65.6018 1020.36 75.0303 1008.82 75.0303ZM991.315 204.083H1026.66V89.9722H991.315V204.083Z" fill="white"/>
  <path d="M837.83 50.6858C836.231 49.8591 834.673 48.9528 833.164 47.9704C828.776 45.0695 824.753 41.6514 821.182 37.7897C812.245 27.5647 808.908 17.1915 807.678 9.92882H807.728C806.701 3.90043 807.125 0 807.19 0H766.487V157.39C766.487 159.503 766.487 161.591 766.398 163.655C766.398 163.912 766.373 164.149 766.358 164.425C766.358 164.539 766.358 164.657 766.334 164.776C766.334 164.806 766.334 164.835 766.334 164.865C765.905 170.512 764.094 175.967 761.062 180.75C758.03 185.534 753.869 189.499 748.945 192.296C743.813 195.216 738.008 196.747 732.104 196.74C713.14 196.74 697.77 181.276 697.77 162.179C697.77 143.082 713.14 127.618 732.104 127.618C735.694 127.615 739.261 128.18 742.674 129.292L742.724 87.8485C732.362 86.5101 721.836 87.3336 711.809 90.267C701.781 93.2004 692.471 98.1801 684.464 104.892C677.449 110.987 671.551 118.261 667.036 126.384C665.318 129.346 658.835 141.25 658.05 160.569C657.556 171.535 660.849 182.896 662.419 187.591V187.69C663.407 190.455 667.233 199.89 673.469 207.844C678.497 214.224 684.438 219.829 691.1 224.477V224.378L691.199 224.477C710.903 237.867 732.751 236.988 732.751 236.988C736.532 236.835 749.202 236.988 763.589 230.17C779.546 222.611 788.63 211.349 788.63 211.349C794.434 204.62 799.049 196.951 802.277 188.672C805.96 178.99 807.19 167.378 807.19 162.737V79.238C807.683 79.5342 814.26 83.8839 814.26 83.8839C814.26 83.8839 823.734 89.9568 838.516 93.9115C849.122 96.7257 863.41 97.3182 863.41 97.3182V56.9117C858.404 57.4548 848.238 55.8749 837.83 50.6858Z" fill="white"/>
  <defs>
    <linearGradient id="paint0_linear_611_56" x1="596.03" y1="229.907" x2="596.03" y2="-0.0438734" gradientUnits="userSpaceOnUse">
      <stop stop-color="#0062E0"/>
      <stop offset="1" stop-color="#19AFFF"/>
    </linearGradient>
    <radialGradient id="paint1_radial_611_56" cx="0" cy="0" r="1" gradientUnits="userSpaceOnUse" gradientTransform="translate(316.627 255.254) rotate(-90) scale(234.885 1098.76)">
      <stop stop-color="#FFDD55"/>
      <stop offset="0.1" stop-color="#FFDD55"/>
      <stop offset="0.5" stop-color="#FF543E"/>
      <stop offset="1" stop-color="#C837AB"/>
    </radialGradient>
  </defs>
</svg>