          <svg
            xmlns="http://www.w3.org/2000/svg"
            id="Layer_1"
            height="100"
            viewBox="0 0 512.002 512.002"
            width="100"
          >
            <g>
              <g>
                <path d="m512.002 392.002c0-57.065-40.04-104.948-93.5-117.046.99-8.282 1.498-16.64 1.498-24.955 0-64.032-28.816-121.452-74.151-160.001h64.152c3.564 0 6.859-1.897 8.649-4.98 1.789-3.083 1.802-6.886.033-9.981l-17.163-30.039 17.164-30.039c1.769-3.095 1.756-6.897-.033-9.981-1.791-3.083-5.086-4.98-8.65-4.98h-80c-5.522 0-10 4.477-10 10v61.191c-32.012-19.765-69.695-31.19-110.001-31.19-39.585 0-78.158 11.087-111.549 32.062-4.677 2.938-6.086 9.11-3.148 13.787 2.937 4.677 9.109 6.086 13.787 3.148 22.842-14.349 48.371-23.577 74.953-27.223-5.315 3.836-9.905 7.597-13.42 11.261-20.965 21.855-19.579 39.865-14.725 51.125 8.607 19.968 33.676 30.492 48.642 30.491.083 0 .168 0 .25-.001 19.944-.152 32.59 3.508 38.605 11.206 6.29 8.048 6.758 22.706 1.389 43.567-4.417 17.165-.332 31.721 11.21 39.937 6.03 4.293 13.406 6.41 21.805 6.41 14.77 0 32.696-6.552 51.988-19.341 23.717-15.722 44.265-21.512 67.447-18.776 1.811 10.516 2.766 21.321 2.766 32.346 0 7.394-.446 14.824-1.311 22.191-2.214-.122-4.443-.19-6.687-.19-66.168 0-120 53.832-120 120 0 12.403 1.892 24.373 5.401 35.636-11.938 4.541-24.203 7.834-36.71 9.875-1.396-41.041-26.457-57.474-45.153-69.708-11.27-7.375-18.235-12.221-19.408-18.663-1.25-6.864 3.433-17.617 13.917-31.96 16.079-21.997 15.729-47.033-.937-66.973-8.721-10.435-21.062-18.243-34.748-21.986-14.555-3.979-29.312-2.89-41.556 3.065-9.612 4.676-12.787 2.023-24.707-13.611-10.922-14.325-25.407-33.306-54.496-38.361 4.198-10.473 9.338-20.592 15.394-30.23 2.938-4.676 1.529-10.849-3.147-13.788-4.676-2.937-10.849-1.53-13.788 3.147-20.976 33.387-32.064 71.962-32.064 111.557 0 115.795 94.205 210 210 210 25.807 0 50.969-4.658 74.94-13.837 7.671 15.101 18.445 28.369 31.476 38.966.465.457.976.869 1.528 1.231 20.41 16.054 46.136 25.64 74.058 25.64s53.647-9.586 74.058-25.64c.553-.362 1.064-.775 1.53-1.233 27.078-22.02 44.412-55.584 44.412-93.126zm-172.001-372.002h52.769l-11.45 20.039c-1.757 3.075-1.757 6.849 0 9.923l11.45 20.038h-52.769zm-21.265 199.761c-26.691 17.694-44.233 18.229-51.144 13.308-6.061-4.314-4.757-13.542-3.439-18.659 7.096-27.574 5.461-47.484-5-60.868-10.097-12.919-27.881-19.104-54.521-18.889-.043 0-.084 0-.128 0-8.931-.001-25.446-7.291-30.24-18.409-3.574-8.292.057-18.171 10.793-29.362 7.824-8.157 25.41-18.806 38.217-26.41 35.878 2.488 69.048 14.971 96.728 34.692v44.837c0 5.523 4.478 10 10 10s10-4.477 10-10v-28.427c24.503 23.025 42.912 52.458 52.519 85.599-25.165-1.42-48.463 5.801-73.785 22.588zm-298.736 30.24c0-17.515 2.403-34.805 7.07-51.435 23.505 2.902 34.487 17.283 45.127 31.238 10.774 14.132 24.182 31.719 49.36 19.471 15.962-7.763 39.379-1.59 52.209 13.761 6.193 7.411 14.447 22.767.136 42.345-14.237 19.478-19.782 34.521-17.447 47.344 2.771 15.22 15.665 23.657 28.135 31.817 17.527 11.47 35.604 23.313 36.16 55.151-3.569.199-7.152.309-10.75.309-104.767-.001-190-85.234-190-190.001zm272.002 142.001c0-55.14 44.859-100 100-100s100 44.86 100 100c0 26.231-10.157 50.131-26.739 67.987-6.168-13.984-16.286-26.058-29.087-34.597 3.713-6.984 5.826-14.943 5.826-23.389v-20.001c0-27.57-22.43-50-50-50s-50 22.43-50 50v20.001c0 8.446 2.113 16.406 5.826 23.39-12.801 8.54-22.919 20.613-29.087 34.597-16.581-17.856-26.739-41.756-26.739-67.988zm78.067 30.438c-.231-.29-.478-.563-.736-.822-4.561-5.264-7.331-12.12-7.331-19.616v-20.001c0-16.542 13.458-30 30-30s30 13.458 30 30v20.001c0 7.496-2.771 14.354-7.333 19.618-.256.256-.499.527-.729.813-5.48 5.88-13.285 9.568-21.938 9.568-8.65.001-16.453-3.684-21.933-9.561zm-35.262 51.543c4.355-13.673 13.583-25.474 25.856-33.06 8.581 6.922 19.481 11.079 31.338 11.079 11.858 0 22.758-4.157 31.339-11.08 12.274 7.585 21.502 19.387 25.857 33.06-16.219 11.35-35.942 18.02-57.196 18.02-21.253 0-40.975-6.67-57.194-18.019z"></path>
                <path d="m68.586 118.58c5.522 0 10-4.477 10-10s-4.478-10-10-10h-.007c-5.522 0-9.996 4.477-9.996 10s4.48 10 10.003 10z"></path>
              </g>
            </g>
          </svg>