<svg xmlns="http://www.w3.org/2000/svg" width="200" height="31" viewBox="0 0 1483 237" fill="none">
  <path d="M117.002 0C52.4847 0 0 52.4822 0 116.995C0 181.513 52.4871 234 117 234C181.51 234 233.993 181.513 233.993 116.995C233.995 52.4847 181.513 0 117.002 0ZM11.807 116.995C11.807 101.748 15.0772 87.2661 20.9151 74.1875L71.0948 211.67C36.0069 194.616 11.807 158.633 11.807 116.995ZM117.002 222.195C106.676 222.195 96.7098 220.681 87.2856 217.909L118.845 126.198L151.186 214.782C151.395 215.305 151.65 215.781 151.935 216.231C141.001 220.078 129.252 222.195 117.002 222.195ZM131.496 67.6762C137.828 67.3431 143.539 66.6744 143.539 66.6744C149.204 66.0034 148.54 57.6757 142.865 58.0089C142.865 58.0089 125.828 59.3437 114.826 59.3437C104.493 59.3437 87.1178 58.0089 87.1178 58.0089C81.4478 57.6757 80.7864 66.3413 86.4541 66.6744C86.4541 66.6744 91.8226 67.3431 97.4854 67.6762L113.873 112.582L90.8525 181.622L52.5527 67.6786C58.8939 67.3479 64.5931 66.6769 64.5931 66.6769C70.2584 66.0082 69.5897 57.6757 63.9172 58.0161C63.9172 58.0161 46.8875 59.351 35.8829 59.351C33.9062 59.351 31.5793 59.2999 29.1138 59.2246C47.9185 30.6627 80.2539 11.807 117.002 11.807C144.392 11.807 169.324 22.2767 188.036 39.4206C187.582 39.3963 187.142 39.3355 186.67 39.3355C176.341 39.3355 169.008 48.3367 169.008 58.0064C169.008 66.672 174.005 74.01 179.337 82.6756C183.341 89.683 188.01 98.6865 188.01 111.687C188.01 120.693 184.552 131.139 180.003 145.693L169.511 180.757L131.496 67.6762ZM169.883 207.925L202.015 115.026C208.023 100.021 210.014 88.0223 210.014 77.3459C210.014 73.4776 209.761 69.8815 209.304 66.5285C217.522 81.5134 222.198 98.7108 222.193 117C222.191 155.805 201.154 189.69 169.883 207.925Z" fill="white"/>
  <path d="M692.789 234L625.087 215.206L610 45.9865H775.781L760.678 215.179L692.789 234Z" fill="#264DE4"/>
  <path d="M747.748 204.405L760.654 59.8226H692.89V219.614L747.748 204.405Z" fill="#2965F1"/>
  <path d="M644.587 122.584L646.447 143.337H692.89V122.584H644.587Z" fill="#EBEBEB"/>
  <path d="M640.849 80.5769L642.736 101.331H692.89V80.5769H692.819H640.849Z" fill="#EBEBEB"/>
  <path d="M692.89 176.484L692.799 176.508L669.686 170.267L668.208 153.715H647.374L650.282 186.301L692.795 198.103L692.89 198.077V176.484Z" fill="#EBEBEB"/>
  <path d="M649.015 0H674.152V10.5117H659.527V21.0234H674.152V31.5352H649.015V0Z" fill="white"/>
  <path d="M679.179 0H704.316V9.14062H689.691V10.9688H704.316V31.9922H679.179V22.3945H693.804V20.5664H679.179V0Z" fill="white"/>
  <path d="M709.344 0H734.48V9.14062H719.855V10.9688H734.48V31.9922H709.344V22.3945H723.969V20.5664H709.344V0Z" fill="white"/>
  <path d="M741.061 122.584L744.808 80.5769H692.819V101.331H722.063L720.175 122.584H692.819V143.337H718.375L715.966 170.254L692.819 176.501V198.093L735.365 186.301L740.555 128.157L741.061 122.584Z" fill="white"/>
  <path d="M504.781 48.9865L489.678 218.179L421.789 237L354.087 218.206L339 48.9865H504.781Z" fill="#E44D26"/>
  <path d="M421.89 222.614L476.748 207.405L489.654 62.8226H421.89V222.614Z" fill="#F16529"/>
  <path d="M392.531 104.331H421.89V83.5769H421.819H369.849L375.447 146.337H421.89V125.584H394.427L392.531 104.331Z" fill="#EBEBEB"/>
  <path d="M397.208 156.715H376.374L379.282 189.301L421.795 201.103L421.89 201.077V179.484L421.799 179.508L398.686 173.267L397.208 156.715Z" fill="#EBEBEB"/>
  <path d="M354.424 3H364.971V13.4203H374.619V3H385.167V34.5553H374.62V23.9887H364.972V34.5553H354.425L354.424 3Z" fill="white"/>
  <path d="M399.036 13.4642H389.751V3H418.873V13.4642H409.584V34.5553H399.037L399.036 13.4642Z" fill="white"/>
  <path d="M423.495 3H434.493L441.258 14.0876L448.016 3H459.017V34.5553H448.514V18.9147L441.258 30.1344H441.076L433.815 18.9147V34.5553H423.495V3Z" fill="white"/>
  <path d="M464.266 3H474.816V24.1249H489.648V34.5553H464.266V3Z" fill="white"/>
  <path d="M421.819 146.337H447.375L444.966 173.254L421.819 179.501V201.093L464.366 189.301L469.555 131.157L470.061 125.584H421.819V146.337Z" fill="white"/>
  <path d="M421.819 104.331H471.949L473.808 83.5769H421.819V104.331Z" fill="white"/>
  <path d="M1115 0H881V234H1115V0Z" fill="#F7DF1E"/>
  <path d="M1038.19 182.813C1042.9 190.509 1049.03 196.166 1059.88 196.166C1068.99 196.166 1074.81 191.612 1074.81 185.32C1074.81 177.78 1068.83 175.11 1058.8 170.723L1053.31 168.365C1037.44 161.605 1026.9 153.136 1026.9 135.233C1026.9 118.742 1039.46 106.188 1059.1 106.188C1073.08 106.188 1083.13 111.053 1090.37 123.793L1073.25 134.788C1069.48 128.028 1065.41 125.364 1059.1 125.364C1052.66 125.364 1048.58 129.45 1048.58 134.788C1048.58 141.384 1052.66 144.055 1062.1 148.14L1067.59 150.495C1086.28 158.507 1096.83 166.675 1096.83 185.038C1096.83 204.835 1081.27 215.681 1060.39 215.681C1039.97 215.681 1026.77 205.95 1020.32 193.195L1038.19 182.813ZM960.512 184.719C963.966 190.847 967.108 196.029 974.663 196.029C981.887 196.029 986.445 193.202 986.445 182.212V107.443H1008.43V182.509C1008.43 205.277 995.084 215.64 975.599 215.64C957.993 215.64 947.798 206.529 942.613 195.555L960.512 184.719Z" fill="black"/>
  <path d="M1482.6 120.027C1482.6 102.62 1460.82 86.1238 1427.42 75.894C1435.12 41.8304 1431.7 14.7295 1416.6 6.05287C1413.12 4.01762 1409.06 3.05356 1404.61 3.05356V14.9973C1407.08 14.9973 1409.06 15.4793 1410.72 16.3898C1418 20.5674 1421.15 36.4745 1418.69 56.9341C1418.1 61.9686 1417.14 67.271 1415.96 72.6805C1405.47 70.1096 1394.02 68.1279 1381.97 66.8425C1374.75 56.9341 1367.25 47.9361 1359.7 40.0629C1377.15 23.8345 1393.53 14.9437 1404.67 14.9437V3C1389.95 3 1370.68 13.4976 1351.19 31.7077C1331.71 13.6047 1312.44 3.21424 1297.72 3.21424V15.1579C1308.8 15.1579 1325.23 23.9952 1342.68 40.1165C1335.19 47.9897 1327.7 56.9341 1320.58 66.8425C1308.48 68.1279 1297.02 70.1096 1286.53 72.734C1285.3 67.3781 1284.39 62.1829 1283.75 57.2019C1281.23 36.7423 1284.34 20.8352 1291.57 16.604C1293.17 15.64 1295.26 15.2115 1297.72 15.2115V3.2678C1293.22 3.2678 1289.16 4.23186 1285.62 6.26711C1270.58 14.9437 1267.21 41.9911 1274.97 75.9476C1241.68 86.2309 1220 102.674 1220 120.027C1220 137.434 1241.79 153.93 1275.19 164.16C1267.48 198.223 1270.9 225.324 1286 234.001C1289.48 236.036 1293.55 237 1298.04 237C1312.76 237 1332.03 226.502 1351.52 208.292C1371 226.395 1390.27 236.786 1404.99 236.786C1409.48 236.786 1413.55 235.822 1417.09 233.786C1432.13 225.11 1435.5 198.062 1427.74 164.106C1460.92 153.876 1482.6 137.38 1482.6 120.027ZM1412.91 84.3028C1410.93 91.2119 1408.47 98.3353 1405.68 105.459C1403.49 101.174 1401.19 96.8892 1398.67 92.6045C1396.21 88.3198 1393.59 84.1421 1390.96 80.0716C1398.57 81.1964 1405.9 82.5889 1412.91 84.3028ZM1388.4 141.343C1384.22 148.574 1379.94 155.429 1375.5 161.803C1367.52 162.499 1359.44 162.874 1351.3 162.874C1343.22 162.874 1335.14 162.499 1327.21 161.856C1322.77 155.483 1318.44 148.681 1314.26 141.504C1310.19 134.488 1306.5 127.364 1303.13 120.187C1306.45 113.011 1310.19 105.834 1314.21 98.8173C1318.38 91.5869 1322.66 84.7313 1327.11 78.3577C1335.08 77.6615 1343.17 77.2866 1351.3 77.2866C1359.38 77.2866 1367.47 77.6615 1375.39 78.3042C1379.83 84.6777 1384.17 91.4797 1388.34 98.6567C1392.41 105.673 1396.1 112.796 1399.48 119.973C1396.1 127.15 1392.41 134.327 1388.4 141.343ZM1405.68 134.381C1408.57 141.558 1411.04 148.734 1413.07 155.697C1406.06 157.411 1398.67 158.857 1391.02 159.982C1393.64 155.858 1396.26 151.627 1398.73 147.288C1401.19 143.004 1403.49 138.665 1405.68 134.381ZM1351.41 191.528C1346.43 186.387 1341.45 180.656 1336.53 174.389C1341.35 174.604 1346.27 174.764 1351.25 174.764C1356.28 174.764 1361.26 174.657 1366.13 174.389C1361.31 180.656 1356.33 186.387 1351.41 191.528ZM1311.58 159.982C1303.98 158.857 1296.65 157.465 1289.64 155.751C1291.62 148.842 1294.08 141.718 1296.86 134.595C1299.06 138.88 1301.36 143.164 1303.88 147.449C1306.39 151.734 1308.96 155.911 1311.58 159.982ZM1351.14 48.5253C1356.12 53.667 1361.1 59.3978 1366.02 65.6642C1361.2 65.45 1356.28 65.2893 1351.3 65.2893C1346.27 65.2893 1341.29 65.3964 1336.42 65.6642C1341.24 59.3978 1346.22 53.667 1351.14 48.5253ZM1311.53 80.0716C1308.91 84.1957 1306.29 88.4269 1303.82 92.7652C1301.36 97.0499 1299.06 101.335 1296.86 105.619C1293.97 98.4424 1291.51 91.2655 1289.48 84.3028C1296.49 82.6425 1303.88 81.1964 1311.53 80.0716ZM1263.09 147.128C1244.14 139.04 1231.88 128.436 1231.88 120.027C1231.88 111.618 1244.14 100.96 1263.09 92.9258C1267.69 90.9441 1272.72 89.1767 1277.92 87.5164C1280.97 98.014 1284.98 108.94 1289.96 120.134C1285.04 131.274 1281.07 142.147 1278.08 152.591C1272.78 150.93 1267.75 149.109 1263.09 147.128ZM1291.89 223.664C1284.61 219.486 1281.45 203.579 1283.91 183.119C1284.5 178.085 1285.46 172.783 1286.64 167.373C1297.13 169.944 1308.59 171.926 1320.63 173.211C1327.86 183.119 1335.35 192.117 1342.9 199.991C1325.45 216.219 1309.07 225.11 1297.93 225.11C1295.53 225.056 1293.49 224.574 1291.89 223.664ZM1418.85 182.852C1421.37 203.311 1418.26 219.218 1411.04 223.45C1409.43 224.414 1407.34 224.842 1404.88 224.842C1393.8 224.842 1377.37 216.005 1359.92 199.883C1367.41 192.01 1374.91 183.066 1382.03 173.157C1394.12 171.872 1405.58 169.89 1416.07 167.266C1417.3 172.675 1418.26 177.871 1418.85 182.852ZM1439.46 147.128C1434.86 149.109 1429.82 150.877 1424.63 152.537C1421.58 142.04 1417.57 131.114 1412.59 119.92C1417.51 108.779 1421.47 97.9068 1424.47 87.4628C1429.77 89.1231 1434.8 90.9441 1439.51 92.9258C1458.46 101.013 1470.72 111.618 1470.72 120.027C1470.67 128.436 1458.41 139.094 1439.46 147.128Z" fill="#61DAFB"/>
  <path d="M1351.25 144.503C1364.76 144.503 1375.71 133.545 1375.71 120.027C1375.71 106.509 1364.76 95.5502 1351.25 95.5502C1337.74 95.5502 1326.79 106.509 1326.79 120.027C1326.79 133.545 1337.74 144.503 1351.25 144.503Z" fill="#61DAFB"/>
</svg>